<svg width="418" height="47" viewBox="0 0 418 47" fill="none" xmlns="http://www.w3.org/2000/svg">
<path d="M408.492 17.8203H410.094V24.5977L410.426 26.1992H416.559C416.988 26.2643 417.203 26.4792 417.203 26.8438V27.1758C412.464 27.5534 410.094 28.0872 410.094 28.7773C410.315 33.9336 410.53 37.0521 410.738 38.1328L410.094 38.4453H409.781C408.701 38.1458 408.16 34.4935 408.16 27.4883C407.73 27.4883 407.516 27.2734 407.516 26.8438L408.16 25.8867V22.6445C408.16 21.5768 408.271 19.9688 408.492 17.8203ZM393.668 21.043H393.98C394.41 21.1081 394.625 21.3229 394.625 21.6875C394.417 22.0651 394.312 22.4948 394.312 22.9766L394.957 22.6445H396.559C397.457 22.6445 399.716 22.2148 403.336 21.3555L403.648 22C403.648 22.7031 401.07 23.569 395.914 24.5977C395.055 24.5977 394.625 24.7018 394.625 24.9102C394.625 25.6263 394.736 26.1667 394.957 26.5312C394.957 26.7135 394.846 27.5729 394.625 29.1094C394.768 32.7552 394.983 34.5781 395.27 34.5781C401.454 32 405.536 30.7109 407.516 30.7109C407.516 31.6354 402.9 33.6797 393.668 36.8438H393.336L393.023 35.2227V25.8867C393.023 24.806 392.053 23.8359 390.113 22.9766V21.3555H390.445C391.812 21.7852 392.561 22 392.691 22C392.691 21.7005 393.017 21.3815 393.668 21.043Z" fill="#4F46F2"/>
<path d="M385.758 15.8867H386.402C386.754 15.8867 387.073 16.6354 387.359 18.1328L387.047 20.3984V28.4648C387.047 31.2253 387.151 34.2331 387.359 37.4883C387.008 40.4961 386.474 42 385.758 42C385.419 42 384.775 41.1406 383.824 39.4219V39.0898C384.54 39.0898 385.074 38.9857 385.426 38.7773L385.113 38.1328V31.043L371.246 36.8438C371.246 37.2734 370.816 37.4883 369.957 37.4883C369.527 36.9154 369.098 35.0859 368.668 32L369 28.7773C369 28.569 368.889 28.4648 368.668 28.4648L369 26.8438V25.2422C369 24.7474 368.889 24.3112 368.668 23.9336L369 23.2891C368.779 22.8724 368.668 22.5534 368.668 22.332L369.312 22C370.003 22 370.543 24.2591 370.934 28.7773C370.712 29.1549 370.602 29.5846 370.602 30.0664C370.602 33.0742 371.031 34.5781 371.891 34.5781C373.974 33.5104 376.982 32.4362 380.914 31.3555C382.997 30.0664 384.397 29.4219 385.113 29.4219V20.7109C385.113 20.5026 385.217 20.3984 385.426 20.3984C385.426 20.1771 385.322 20.0664 385.113 20.0664L385.426 18.4648V17.8203L385.113 16.1992L385.758 15.8867Z" fill="#4F46F2"/>
<path d="M350.777 0.769531H351.109C352.607 0.769531 353.355 1.41406 353.355 2.70312H352.711L351.754 2.05859C351.324 2.05859 350.895 2.91797 350.465 4.63672C355.543 9.29818 358.225 12.0911 358.512 13.0156V13.6602H357.867C352.932 9.28516 350.465 6.92188 350.465 6.57031H349.82C348.388 9.92969 346.773 13.0417 344.977 15.9062C345.198 16.2839 345.309 16.7135 345.309 17.1953V17.5273H344.332C343.902 17.5273 343.688 17.3125 343.688 16.8828V15.9062L348.199 5.61328C349.085 2.90495 349.944 1.29036 350.777 0.769531ZM359.469 16.2383C363.766 16.4466 365.914 16.8763 365.914 17.5273L365.27 17.8398H364.625C364.417 17.8398 364.312 17.7357 364.312 17.5273L363.668 17.8398H362.691C358.043 17.8398 354.827 18.1654 353.043 18.8164V18.4844C350.243 19.0443 348.844 19.474 348.844 19.7734C348.635 19.7734 348.531 19.6693 348.531 19.4609C345.068 19.8906 343.023 20.1055 342.398 20.1055C342.398 20.6393 341.969 20.9583 341.109 21.0625C341.109 20.4245 340.465 20.1055 339.176 20.1055C339.176 20.3138 339.072 20.418 338.863 20.418C337.145 19.0768 336.285 18.3281 336.285 18.1719V17.8398C336.35 17.4102 336.565 17.1953 336.93 17.1953H338.219C338.948 17.9505 339.911 18.4909 341.109 18.8164L359.469 16.2383ZM356.246 21.3945H356.578C357.438 21.8242 357.867 22.4688 357.867 23.3281C357.646 23.7448 357.535 24.0638 357.535 24.2852C357.757 24.2852 357.867 24.3958 357.867 24.6172H357.535L356.891 24.2852L357.223 24.9297V25.9062C357.223 26.1146 357.112 26.2188 356.891 26.2188C356.891 27.0781 357.32 27.5078 358.18 27.5078V28.1523C357.542 28.1523 357.223 28.3672 357.223 28.7969V31.0625C357.223 31.5443 357.327 31.9674 357.535 32.332C357.327 32.6966 357.223 33.237 357.223 33.9531H356.578C355.927 33.9531 355.602 32.7747 355.602 30.418H355.289C352.503 34.2721 349.82 36.1992 347.242 36.1992C345.419 36.1992 344.449 34.1615 344.332 30.0859V26.2188L344.02 23.9727L345.621 22.6836C346.051 22.7487 346.266 22.9635 346.266 23.3281V23.9727H345.621L345.953 24.6172V27.8398L347.555 27.5078C348.206 27.7292 348.531 27.944 348.531 28.1523L349.176 27.8398H350.133C353.57 27.8398 355.289 27.4102 355.289 26.5508C355.289 26.0039 355.608 24.2852 356.246 21.3945ZM345.953 28.4844V28.7969H346.266L345.953 29.4414C345.953 32.8789 346.598 34.5977 347.887 34.5977C349.762 34.5977 352.229 32.9896 355.289 29.7734V28.7969C351.839 29.2266 349.801 29.4414 349.176 29.4414C347.757 29.2331 346.682 28.9141 345.953 28.4844Z" fill="#4F46F2"/>
<path d="M327.73 7.83984H328.707C329.202 7.83984 329.521 8.59505 329.664 10.1055C329.885 19.3242 329.996 24.3698 329.996 25.2422C329.645 29.1094 329.104 31.043 328.375 31.043V29.4414H328.062L325.797 34.5977C326.76 34.832 329.339 37.1953 333.531 41.6875V42H332.574C328.915 39.4349 326.441 37.5013 325.152 36.1992H324.84C322.939 41.1471 321.865 43.6211 321.617 43.6211H320.973V42.332C320.973 42.0846 321.188 40.8997 321.617 38.7773C320.901 38.7773 319.501 37.2734 317.418 34.2656H317.105L312.594 41.6875H311.949V40.3984C311.949 39.7344 313.883 36.1862 317.75 29.7539V28.7969C316.253 27.5859 314.749 24.793 313.238 20.418C313.238 20.1966 313.128 20.0859 312.906 20.0859C309.82 25.099 307.997 27.7878 307.438 28.1523H307.105C307.105 26.5378 309.469 22.1302 314.195 14.9297C314.195 13.888 314.951 12.8138 316.461 11.707H317.105L317.418 13.3281C315.608 15.4375 314.645 17.1562 314.527 18.4844C316.376 24.5 317.984 27.5078 319.352 27.5078C319.638 27.5078 320.178 28.0417 320.973 29.1094C319.462 30.1771 318.707 31.362 318.707 32.6641V33.3086C319.137 33.3086 320.211 34.8125 321.93 37.8203H322.262C323.473 34.487 324.332 32.5534 324.84 32.0195C326.533 28.3607 327.711 26.5312 328.375 26.5312C328.167 24.0052 328.062 22.1823 328.062 21.0625V19.1289C324.13 19.9883 321.441 20.737 319.996 21.375V21.707H319.352C319.039 21.707 318.72 21.3815 318.395 20.7305C318.395 19.8581 321.617 18.9987 328.062 18.1523L327.73 14.2852C327.353 14.2852 324.345 15.3594 318.707 17.5078V17.8398H317.418C317.105 17.8398 316.786 17.5143 316.461 16.8633V16.2188C317.008 16.2188 317.757 15.8997 318.707 15.2617C318.928 15.2617 319.039 15.3659 319.039 15.5742L327.73 12.6836V10.418C327.73 10.2096 327.841 10.1055 328.062 10.1055L327.73 9.46094V7.83984Z" fill="#4F46F2"/>
<path d="M280.855 14.9297H282.457C282.913 15.3854 284.846 16.3555 288.258 17.8398C288.909 18.6732 289.234 19.3177 289.234 19.7734H288.59C283.434 17.2604 280.855 15.8607 280.855 15.5742V14.9297ZM294.391 15.5742H295.348C295.348 16.0039 295.562 16.2188 295.992 16.2188C295.784 17.3516 295.68 17.9961 295.68 18.1523C295.888 18.569 295.992 18.8945 295.992 19.1289H295.68L295.992 19.7734V26.2188H299.859C301.214 26.2188 302.717 26.5378 304.371 27.1758V27.8203H299.547C299.326 27.8203 299.215 27.7161 299.215 27.5078C299.007 27.5078 298.902 27.612 298.902 27.8203L297.281 27.5078H295.992V28.4648C295.992 29.2461 295.888 30.2161 295.68 31.375C295.68 31.5833 295.784 31.6875 295.992 31.6875L295.68 33.3086V42.332C295.68 42.7617 295.354 42.9766 294.703 42.9766C294.286 42.7552 293.967 42.6445 293.746 42.6445V42L294.391 41.043V40.7109L294.059 39.1094H294.391L294.059 38.4648V31.043C294.059 30.8346 294.169 30.7305 294.391 30.7305C294.391 30.5091 294.28 30.3984 294.059 30.3984L294.391 25.8867C294.391 24.3112 294.28 21.8438 294.059 18.4844C294.28 17.3125 294.391 16.3424 294.391 15.5742ZM275.367 20.7305C277.516 21.1211 278.59 21.4466 278.59 21.707C278.811 21.707 278.922 21.5964 278.922 21.375L280.523 21.707C281.174 21.707 281.5 21.5964 281.5 21.375L283.102 21.707H286.969C289.339 21.707 290.523 22.026 290.523 22.6641C290.523 23.0938 290.309 23.3086 289.879 23.3086H289.547L288.902 22.9961C288.902 24.1289 288.258 24.8776 286.969 25.2422V25.5742C287.828 27.2018 288.368 28.4909 288.59 29.4414C288.59 32.6445 287.086 34.793 284.078 35.8867C283.297 35.8867 282.327 35.9909 281.168 36.1992C277.301 36.1992 275.367 35.0208 275.367 32.6641C275.367 31.5833 277.73 29.5391 282.457 26.5312C282.457 25.6719 283.642 25.0273 286.012 24.5977L287.945 22.9961C287.529 23.2044 287.203 23.3086 286.969 23.3086C278.805 23.1784 274.723 22.5339 274.723 21.375C274.788 20.9453 275.003 20.7305 275.367 20.7305ZM277.301 32.9766C278.017 34.0573 279.632 34.5977 282.145 34.5977C285.361 34.181 286.969 32.8919 286.969 30.7305V29.7539C286.969 28.5039 286.539 27.4297 285.68 26.5312C280.198 29.6693 277.405 31.8177 277.301 32.9766Z" fill="#4F46F2"/>
<path d="M254.586 12.9961C255.237 13.9987 257.6 15.0729 261.676 16.2188C262.965 17.1042 263.609 17.6445 263.609 17.8398V18.1523H262.965C257.158 16.4987 254.039 15.1055 253.609 13.9727V13.3281C253.844 13.3281 254.169 13.2174 254.586 12.9961ZM270.367 13.6406H271.012C271.324 13.6406 271.65 13.9661 271.988 14.6172C271.767 17.9245 271.656 20.8216 271.656 23.3086L271.988 23.9531C271.715 26.9609 271.5 28.4648 271.344 28.4648L271.656 30.0664V33.6211C271.5 36.4076 271.07 37.8008 270.367 37.8008H269.723L270.055 34.5781V32.9766L269.723 31.043C269.723 30.8216 269.833 30.7109 270.055 30.7109L269.723 29.1094V24.9102H269.41C265.478 24.9102 263.004 25.2357 261.988 25.8867L261.344 24.9102V24.5977C261.344 23.9466 264.137 23.6211 269.723 23.6211C269.944 21.681 270.159 18.3542 270.367 13.6406ZM263.609 18.4844L265.211 18.7969V20.0859C264.312 20.0859 262.594 21.2643 260.055 23.6211H259.742C260.497 24.4805 261.786 27.0586 263.609 31.3555H263.922C263.714 32.0065 263.499 32.332 263.277 32.332C261.559 31.4076 260.699 30.3333 260.699 29.1094C259.553 26.3099 258.805 24.9102 258.453 24.9102C253.375 28.7643 249.397 32.0977 246.52 34.9102H246.207V33.9336C249.553 30.0273 254.28 25.8411 260.387 21.375L261.676 20.0859H250.719L250.387 19.4414L251.363 18.7969L252.965 19.1289C257.079 18.6992 260.628 18.4844 263.609 18.4844ZM265.211 35.2227C268.219 35.8477 269.723 37.3516 269.723 39.7344C269.723 44.2526 267.47 46.5117 262.965 46.5117C259.306 45.8607 257.477 44.2461 257.477 41.668V39.7344C257.477 37.612 259.091 36.1081 262.32 35.2227H265.211ZM261.676 36.8438L262.965 38.1328V38.4453H260.387C260.387 38.7448 259.957 39.2852 259.098 40.0664V40.7109C259.475 43.4974 260.868 44.8906 263.277 44.8906C266.507 44.8906 268.121 43.1719 268.121 39.7344C268.121 37.9375 266.721 36.8633 263.922 36.5117C263.648 36.7331 262.9 36.8438 261.676 36.8438ZM268.434 38.4453V39.7344H268.766V38.4453H268.434Z" fill="#4F46F2"/>
<path d="M225.758 10.1055C227.477 10.4961 228.336 10.9258 228.336 11.3945V11.707H226.402C225.009 11.707 224.039 12.6771 223.492 14.6172H223.824C223.824 13.6667 225.862 12.6966 229.938 11.707C232.815 11.707 234.645 12.9961 235.426 15.5742V16.2188C235.426 17.7552 234.241 19.474 231.871 21.375C231.871 22.026 231.552 22.3516 230.914 22.3516V23.6406C230.914 25.3073 231.018 26.8112 231.227 28.1523C231.018 29.2591 230.914 30.5482 230.914 32.0195L231.559 31.6875H232.203C234.677 31.6875 238.004 32.2279 242.184 33.3086C243.043 33.4128 243.473 33.7318 243.473 34.2656V34.5977C243.473 35.0273 243.258 35.2422 242.828 35.2422C242.333 35.2422 239.326 34.5977 233.805 33.3086C232.034 33.4648 230.855 33.9987 230.27 34.9102H229.938L229.625 33.6211C229.404 33.6211 226.5 34.1615 220.914 35.2422V34.9102C220.523 35.0664 219.02 35.2812 216.402 35.5547C214.684 35.0469 213.824 34.6172 213.824 34.2656V33.6211C213.98 33.6211 214.625 33.5169 215.758 33.3086C216.617 33.4779 217.047 33.6927 217.047 33.9531L222.848 32.6641L222.535 31.043L222.848 29.1094C222.848 28.901 222.743 28.7969 222.535 28.7969L222.848 27.1758C222.848 26.707 222.633 25.099 222.203 22.3516L222.848 22.0195H223.18C223.688 22.0195 224.221 23.5234 224.781 26.5312L224.469 28.7969V32.6641L229.293 32.0195V22.3516H226.402C224.15 22.3516 222.535 20.737 221.559 17.5078V15.2617C222.665 11.8242 224.065 10.1055 225.758 10.1055ZM223.492 18.1523C224.625 20.0924 226.129 21.0625 228.004 21.0625C231.871 19.9036 233.805 18.1849 233.805 15.9062C233.805 14.7474 232.73 13.7773 230.582 12.9961C225.855 13.7904 223.492 15.5091 223.492 18.1523Z" fill="#4F46F2"/>
<path d="M180.699 6.55078H183.922C184.13 6.55078 184.234 6.66146 184.234 6.88281C184.456 6.88281 184.566 6.77214 184.566 6.55078L189.391 7.19531V9.12891L188.746 10.1055C189.397 10.1055 189.723 11.2839 189.723 13.6406H189.391L181.012 14.2852V15.9062C181.363 15.9062 182.652 15.7956 184.879 15.5742L187.789 15.9062C188.635 15.6849 189.384 15.5742 190.035 15.5742C191.324 15.7956 191.969 16.1211 191.969 16.5508V17.1953L191.656 17.8398C187.906 17.4102 185.543 17.1953 184.566 17.1953C183.967 17.1953 182.138 17.5143 179.078 18.1523C178.87 17.7357 178.766 17.4167 178.766 17.1953C179.404 15.8542 179.723 14.8841 179.723 14.2852H179.078L176.832 13.9727V13.3281C176.897 12.8984 177.112 12.6836 177.477 12.6836H177.789V13.3281L178.766 12.6836H182.945C184.026 12.6836 185.641 12.5729 187.789 12.3516V8.48438C185.263 8.27604 183.434 8.17188 182.301 8.17188H180.055L178.434 7.83984V6.88281L180.699 6.55078ZM192.301 18.1523V18.7969H195.523C197.672 19.0703 198.746 19.5 198.746 20.0859V20.418C198.746 20.8477 198.531 21.0625 198.102 21.0625H197.457C197.457 20.4115 197.242 20.0859 196.812 20.0859H192.945C192.724 20.0859 192.613 19.9818 192.613 19.7734L189.723 20.418L188.102 20.0859C185.419 20.0859 182.197 20.4115 178.434 21.0625L178.766 22.6641C178.544 22.6641 178.434 22.7747 178.434 22.9961C177.366 22.7227 176.832 22.3971 176.832 22.0195H177.477V21.707L177.145 21.0625L174.898 21.375H173.277C173.277 19.8125 178.115 18.849 187.789 18.4844L192.301 18.1523ZM180.055 23.6406C184.352 23.849 187.574 23.9531 189.723 23.9531H191.656V24.9297C190.576 26.1667 190.035 27.3451 190.035 28.4648C190.257 28.8424 190.367 29.2721 190.367 29.7539L189.723 30.0859L186.812 29.7539C186.292 29.7539 184.469 29.9688 181.344 30.3984V33.9531C181.409 34.3828 181.624 34.5977 181.988 34.5977C185.4 34.168 187.548 33.9531 188.434 33.9531C192.509 34.7214 194.547 35.4701 194.547 36.1992V36.8438H194.234C192.932 36.4141 190.673 35.9844 187.457 35.5547L181.656 36.5312C180.159 36.2448 179.41 35.9193 179.41 35.5547V30.3984H178.434V29.1094C179.436 29.1094 180.191 28.8945 180.699 28.4648C180.908 28.4648 181.012 28.5755 181.012 28.7969L181.656 28.4648H181.988C183.225 28.4648 184.944 28.3607 187.145 28.1523C187.509 28.3607 187.939 28.4648 188.434 28.4648C188.434 27.5664 188.753 26.6029 189.391 25.5742L186.5 25.2422C186.266 25.2422 185.94 25.3529 185.523 25.5742C185.315 25.5742 185.211 25.4635 185.211 25.2422L182.945 25.5742H182.633C181.552 25.5742 179.938 25.4635 177.789 25.2422V24.9297C177.789 24.5 178.115 24.2852 178.766 24.2852H179.078V24.5977H178.434V24.9297H178.766C179.404 24.7734 179.833 24.3438 180.055 23.6406ZM174.566 23.9531H175.543V24.5977H174.566V23.9531ZM196.48 36.5312H197.125V37.4883H196.168C196.376 37.0716 196.48 36.7526 196.48 36.5312Z" fill="#4F46F2"/>
<path d="M169.547 16.5508H170.191C170.413 17.7227 170.523 18.582 170.523 19.1289C170.523 27.8789 170.309 34.4284 169.879 38.7773C169.879 38.9857 169.983 39.0898 170.191 39.0898L169.879 40.7109V44.2461C169.879 44.5586 169.553 44.8841 168.902 45.2227H168.59C168.16 45.2227 167.945 45.0078 167.945 44.5781V41.3555C167.945 41.1341 168.049 41.0234 168.258 41.0234L167.945 40.3789C167.945 38.9596 168.16 34.6628 168.59 27.4883C168.59 27.2279 168.479 26.1536 168.258 24.2656C168.375 19.1224 168.805 16.5508 169.547 16.5508ZM152.789 19.1289H153.121C153.447 19.1289 153.766 19.5586 154.078 20.418C154.729 20.1966 155.055 19.9818 155.055 19.7734C156.891 20.2031 160.328 20.5221 165.367 20.7305V22.0195C162.646 23.8294 161.246 25.1185 161.168 25.8867C161.168 26.5247 162.887 30.3919 166.324 37.4883V38.1328H165.68C163.896 36.4271 161.962 33.0938 159.879 28.1328C159.879 27.4948 159.664 27.1758 159.234 27.1758C159.221 27.5664 158.258 28.5299 156.344 30.0664C156.344 30.431 155.374 31.5052 153.434 33.2891C152.366 34.4349 151.832 35.2943 151.832 35.8672H151.188C150.758 35.8672 150.543 35.6523 150.543 35.2227C150.543 33.8294 154.41 29.5326 162.145 22.332V22.0195C155.478 21.7982 152.145 21.1536 152.145 20.0859V19.7734C152.223 19.3438 152.438 19.1289 152.789 19.1289Z" fill="#4F46F2"/>
<path d="M145.543 12.6836H145.875C146.513 12.6836 147.047 17.7292 147.477 27.8203C147.477 28.0417 147.372 28.1523 147.164 28.1523L147.477 29.7539V35.2422L147.809 36.8438H147.477C147.477 37.0651 147.587 37.1758 147.809 37.1758L147.164 44.2656H145.875L145.23 43.9336C145.439 42.0326 145.543 40.8542 145.543 40.3984C145.113 25.2552 144.898 16.6615 144.898 14.6172L144.586 13.9727C144.898 13.1133 145.217 12.6836 145.543 12.6836ZM136.852 19.4414H138.141C138.141 20.0924 138.674 20.418 139.742 20.418V21.0625L139.43 21.707L138.785 21.375H138.453V21.707C139.312 22.7878 139.742 23.6471 139.742 24.2852V25.5742C139.742 28.0742 136.845 30.0078 131.051 31.375H129.43C127.281 31.0755 126.207 30.1055 126.207 28.4648V28.1523C126.207 25.8997 129.111 23.2109 134.918 20.0859C135.621 19.6562 136.266 19.4414 136.852 19.4414ZM128.141 27.5078V28.7969C128.362 29.4349 129.007 29.7539 130.074 29.7539H130.719L132.34 29.4414V29.7539C136.415 28.3867 138.453 26.7786 138.453 24.9297C138.154 23.2891 137.405 22.1042 136.207 21.375C133.017 22.5469 130.328 24.5911 128.141 27.5078Z" fill="#4F46F2"/>
<path d="M122.477 17.1953C122.893 17.4036 123.219 17.5078 123.453 17.5078C123.232 22.9245 123.121 27.2214 123.121 30.3984V35.5547C123.121 35.776 123.017 35.8867 122.809 35.8867C123.238 37.0065 123.453 39.2591 123.453 42.6445V43.9336L123.121 45.5547H122.164C121.461 39.3177 121.031 36.1992 120.875 36.1992L121.188 33.9531V29.4414C121.188 26.043 121.402 22.0651 121.832 17.5078C122.262 17.5078 122.477 17.4036 122.477 17.1953ZM114.098 20.7305V21.0625C112.053 22.5599 110.12 23.3086 108.297 23.3086V23.6406C109.156 23.7448 109.586 24.0638 109.586 24.5977V24.9297C108.792 24.9297 108.258 26.6484 107.984 30.0859L117.008 27.8203C117.294 24.6042 117.724 22.9961 118.297 22.9961H119.254V24.2852H118.941L119.254 24.9297C119.254 25.3203 119.039 26.1797 118.609 27.5078L119.254 27.1758H119.586V28.1523L118.609 29.4414V33.6211L118.941 35.2422H118.609L118.941 35.8867V39.7539H117.652C117.001 35.8477 116.676 32.4102 116.676 29.4414C112.275 30.7305 109.697 31.375 108.941 31.375H108.629L107.984 31.043C107.815 31.4076 107.6 32.6966 107.34 34.9102C111.207 34.4805 113.141 34.0508 113.141 33.6211H113.785V33.9531C113.785 35.4375 108.844 36.7266 98.9609 37.8203L97.3398 36.5312C97.3398 36.2188 97.6654 35.8932 98.3164 35.5547L99.918 36.1992C103.473 35.5612 105.517 35.2422 106.051 35.2422V34.2656C106.051 31.5052 106.48 28.0677 107.34 23.9531H107.008L102.828 24.9297C102.828 25.5156 103.258 28.8424 104.117 34.9102H103.141C102.411 34.9102 101.767 31.5833 101.207 24.9297H99.6055C99.0716 24.5 98.6419 24.2852 98.3164 24.2852V22.9961L101.539 23.3086H102.184C109.306 21.5898 113.277 20.7305 114.098 20.7305Z" fill="#4F46F2"/>
<path d="M76.1094 9.77344H77.0859C78.2188 9.77344 78.9674 12.5664 79.332 18.1523H79.0195L79.332 18.7969C79.332 19.0182 79.2279 19.1289 79.0195 19.1289L79.332 20.7305V23.6406C79.332 30.2943 78.5833 33.6211 77.0859 33.6211H76.7539C77.1836 30.3268 77.3984 27.9635 77.3984 26.5312H77.0859C74.3125 26.9609 68.5117 28.25 59.6836 30.3984C58.5117 30.6198 57.5417 30.7305 56.7734 30.7305C55.888 30.3008 55.2435 30.0859 54.8398 30.0859V28.7969L57.1055 28.4648C57.1706 28.8945 57.3854 29.1094 57.75 29.1094C62.2552 28.3672 64.5078 27.6185 64.5078 26.8633C64.7292 25.6914 64.8398 24.5065 64.8398 23.3086L64.5078 22.6641C64.7292 22.2865 64.8398 21.8568 64.8398 21.375V20.418C63.1081 20.8477 61.7083 21.0625 60.6406 21.0625C60.0677 14.8255 59.1042 11.707 57.75 11.707C57.5286 11.707 57.418 11.6029 57.418 11.3945L58.0625 10.418L60.3281 10.75H61.2852V11.3945L60.9727 12.0391H64.5078C67.5156 12.0391 69.0195 11.4987 69.0195 10.418H69.9961C69.9961 10.6523 70.1003 10.9779 70.3086 11.3945C70.3086 12.6836 67.8411 13.543 62.9062 13.9727C62.5417 13.7513 62.0013 13.6406 61.2852 13.6406C61.7148 14.6042 61.9297 16.0039 61.9297 17.8398V19.4414H62.2617C67.2878 17.5143 70.6146 16.5508 72.2422 16.5508L72.5742 17.1953V17.8398C69.1367 18.2695 67.418 19.0182 67.418 20.0859C66.7669 20.0859 66.4414 20.3008 66.4414 20.7305V25.2422L66.1289 26.8633H66.4414C71.6888 25.7826 75.237 25.2422 77.0859 25.2422C77.151 25.6719 77.3659 25.8867 77.7305 25.8867V25.5742H77.3984C77.3984 25.3529 77.5091 25.2422 77.7305 25.2422C77.3008 23.0938 76.9753 18.7969 76.7539 12.3516C76.3242 12.3516 76.1094 12.1367 76.1094 11.707V9.77344ZM70.6406 30.7305C71.0573 30.9388 71.3763 31.043 71.5977 31.043C71.5977 31.5247 71.4935 31.9544 71.2852 32.332C71.4935 34.6888 71.5977 36.7331 71.5977 38.4648V39.7539C71.6628 40.1836 71.8776 40.3984 72.2422 40.3984L76.7539 39.4219H79.6641C80.1458 39.4219 80.5755 39.3177 80.9531 39.1094C81.3307 39.3177 81.7604 39.4219 82.2422 39.4219V39.7539C82.2422 40.1836 78.8047 41.043 71.9297 42.332C71.2266 42.7617 70.6862 42.9766 70.3086 42.9766L69.6641 42V38.7773C69.6641 38.569 69.7747 38.4648 69.9961 38.4648L69.6641 37.8203V34.9102L69.3516 31.6875L70.6406 30.7305Z" fill="#4F46F2"/>
<path d="M36.9688 4.94922C42.9844 4.94922 45.9922 5.59375 45.9922 6.88281V10.418C45.3411 13.2174 45.0156 14.7214 45.0156 14.9297H46.6367C47.0664 14.9948 47.2812 15.2096 47.2812 15.5742V15.9062H45.6602C45.1654 15.9062 44.4167 16.2253 43.4141 16.8633C43.4141 17.9961 43.3034 19.819 43.082 22.332C43.5117 22.332 43.7266 22.4427 43.7266 22.6641L44.3711 22.332C44.5924 22.332 44.7031 22.4427 44.7031 22.6641L46.3047 22.332C46.5391 22.332 46.8646 22.4427 47.2812 22.6641C47.6589 22.4427 48.0885 22.332 48.5703 22.332C50.9271 22.5534 52.1055 22.9831 52.1055 23.6211V24.2656L48.8828 23.9531H47.9258C45.556 23.9531 43.5117 24.168 41.793 24.5977L41.1484 24.2656L32.457 25.2422L28.5898 24.5977V23.3086H29.2344C30.0938 23.3086 30.5234 23.4128 30.5234 23.6211L41.4805 22.6641V21.6875C41.4805 20.6198 41.5846 19.0117 41.793 16.8633H39.2148C39.0195 16.8633 38.1602 17.0781 36.6367 17.5078L35.3477 16.5508C35.3477 15.8997 35.6732 15.5742 36.3242 15.5742C36.0638 13.6602 35.849 12.4818 35.6797 12.0391C35.888 11.6615 35.9922 11.2318 35.9922 10.75V10.418L35.6797 8.81641H35.9922L35.6797 8.17188C35.6797 7.95052 35.7839 7.83984 35.9922 7.83984L35.6797 7.19531V6.23828L36.9688 4.94922ZM37.6133 6.55078V8.81641C37.6133 9.29818 37.7174 9.72786 37.9258 10.1055C37.7174 10.4701 37.6133 10.8997 37.6133 11.3945C37.6133 11.5247 37.7174 12.918 37.9258 15.5742H38.2578C41.6953 15.3659 43.4141 14.9362 43.4141 14.2852C44.0521 12.5404 44.3711 10.9323 44.3711 9.46094V7.52734C44.3711 7.09766 44.1562 6.88281 43.7266 6.88281H40.8359L37.6133 6.55078ZM42.125 24.9102H43.4141V26.1992L41.4805 29.1094C43.2643 32.1823 44.8724 34.5456 46.3047 36.1992V36.5117H45.3477C42.1836 33.8424 40.569 32.0195 40.5039 31.043H40.1914C36.7539 34.9102 35.0352 36.9479 35.0352 37.1562H34.3906C33.9609 37.1562 33.7461 36.9414 33.7461 36.5117V36.1992C37.7956 30.6523 40.3737 27.319 41.4805 26.1992C41.9102 26.1992 42.125 25.7695 42.125 24.9102Z" fill="#4F46F2"/>
<path d="M18.1211 12.3516H18.4336C19.0846 12.4818 19.4102 13.3411 19.4102 14.9297V19.1289C20.8164 19.1289 22.9648 19.6628 25.8555 20.7305V21.707L19.7227 20.7305V22.6641C19.7227 22.8854 19.6185 22.9961 19.4102 22.9961L19.7227 23.6406L19.4102 24.2852C19.4102 24.4935 19.5143 24.5977 19.7227 24.5977L19.4102 26.2188L19.7227 30.0859L19.0781 30.3984C18.5573 30.3984 18.1276 29.0052 17.7891 26.2188C18.0104 25.0859 18.1211 24.0117 18.1211 22.9961C18.1211 21.7721 17.9062 20.5872 17.4766 19.4414C17.6849 18.5951 17.7891 17.8464 17.7891 17.1953C17.7891 16.9609 17.6849 16.6354 17.4766 16.2188L17.7891 14.2852L17.4766 12.6836L18.1211 12.3516ZM3.29688 13.6406C3.50521 13.6406 3.60938 13.7513 3.60938 13.9727L4.25391 13.6406C6.19401 14.2917 7.16406 14.7214 7.16406 14.9297L7.80859 14.6172C10.3216 14.8255 12.1445 14.9297 13.2773 14.9297V15.9062L10.0547 19.4414V19.7734C12.2812 24.474 13.5703 26.8372 13.9219 26.8633C13.9219 27.293 14.3516 27.5078 15.2109 27.5078V28.1523H13.6094C12.3464 28.1523 10.8424 25.7891 9.09766 21.0625C8.51172 21.2057 6.14844 23.9987 2.00781 29.4414C2.00781 30.3008 1.79297 30.7305 1.36328 30.7305C1.05078 30.7305 0.72526 30.4049 0.386719 29.7539C1.64974 27.0456 5.08724 22.5339 10.6992 16.2188H5.875C3.94792 15.3984 2.8737 14.6497 2.65234 13.9727L3.29688 13.6406ZM4.25391 31.6875C7.9388 32.1172 10.0872 32.4427 10.6992 32.6641C10.9206 32.6641 11.0312 32.5534 11.0312 32.332C11.2526 32.332 11.5716 32.4427 11.9883 32.6641C16.1549 32.3646 18.3034 32.1497 18.4336 32.0195C18.8503 32.2279 19.1758 32.332 19.4102 32.332V32.9766L17.7891 36.1992C18.4401 36.1992 18.7656 36.4141 18.7656 36.8438C18.7656 37.1302 18.1211 37.5599 16.832 38.1328H16.5V37.4883L14.2539 37.8203H11.0312V39.7539L10.6992 42.9766H16.1875C17.75 42.9766 19.4688 43.4062 21.3438 44.2656V44.5781C21.3438 45.0078 21.0182 45.2227 20.3672 45.2227C18.0755 44.793 16.5716 44.5781 15.8555 44.5781H9.41016C8.98047 44.5781 8.76562 44.3633 8.76562 43.9336L9.41016 37.4883C8.98047 37.4883 8.76562 37.2734 8.76562 36.8438V36.5312L9.09766 35.8867L12.9648 36.1992H16.5C16.5 35.5612 16.7148 34.8125 17.1445 33.9531H15.2109L12.9648 34.2656V33.9531C12.7435 33.9531 12.6328 34.0573 12.6328 34.2656C9.14323 34.0573 6.24609 33.6276 3.94141 32.9766V32.332L4.25391 31.6875Z" fill="#4F46F2"/>
</svg>
