<svg  viewBox="0 0 210 56" fill="none" xmlns="http://www.w3.org/2000/svg">
<path d="M174.142 44.8824C174.066 45.9772 173.481 46.7322 172.386 47.1474C171.329 47.5627 169.404 47.7703 166.61 47.7703C163.817 47.7703 161.477 47.5249 159.589 47.0342C157.739 46.5057 156.814 45.8451 156.814 45.0523C156.814 44.1463 158.494 38.3706 161.854 27.7252C165.214 17.0421 167.139 10.8889 167.63 9.26563C167.818 8.77489 169.328 8.37851 172.16 8.07652C175.029 7.73677 178.086 7.56689 181.333 7.56689C184.617 7.56689 186.429 8.13314 186.769 9.26563C193.904 32.9724 197.471 45.0146 197.471 45.3921C197.471 45.7696 197.244 46.1471 196.791 46.5246C195.734 47.355 193.639 47.7703 190.506 47.7703C183.824 47.7703 180.408 46.9776 180.257 45.3921L179.861 41.7115H174.425L174.142 44.8824ZM178.672 30.9528L177.822 20.7604H176.576L175.614 30.9528H178.672Z" fill="#4F46F2"/>
<path d="M132.471 47.7715C130.583 47.7715 129.319 47.6771 128.677 47.4884C128.035 47.2619 127.714 46.9033 127.714 46.4125V11.1921C127.714 10.3616 128.809 9.54996 130.999 8.75721C133.188 7.92672 135.642 7.51147 138.36 7.51147C140.776 7.51147 142.361 8.0211 143.116 9.04034C143.38 9.41783 143.513 9.79533 143.513 10.1728V35.2575C148.118 34.9555 151.591 34.8045 153.932 34.8045C154.724 34.8045 155.121 36.0691 155.121 38.5983C155.121 41.0898 154.951 43.2415 154.611 45.0535C154.271 46.8655 153.818 47.7715 153.252 47.7715H132.471Z" fill="#4F46F2"/>
<path d="M101.536 44.8824C101.461 45.9772 100.875 46.7322 99.7807 47.1474C98.7237 47.5627 96.7985 47.7703 94.005 47.7703C91.2115 47.7703 88.8711 47.5249 86.9836 47.0342C85.1338 46.5057 84.209 45.8451 84.209 45.0523C84.209 44.1463 85.8888 38.3706 89.2486 27.7252C92.6083 17.0421 94.5335 10.8889 95.0243 9.26563C95.213 8.77489 96.723 8.37851 99.5542 8.07652C102.423 7.73677 105.481 7.56689 108.727 7.56689C112.012 7.56689 113.824 8.13314 114.163 9.26563C121.298 32.9724 124.865 45.0146 124.865 45.3921C124.865 45.7696 124.639 46.1471 124.186 46.5246C123.129 47.355 121.034 47.7703 117.901 47.7703C111.219 47.7703 107.803 46.9776 107.652 45.3921L107.255 41.7115H101.819L101.536 44.8824ZM106.066 30.9528L105.217 20.7604H103.971L103.008 30.9528H106.066Z" fill="#4F46F2"/>
<path d="M64.3044 48.2804C61.4732 48.2804 59.0384 48.035 56.9999 47.5443C54.9614 47.0535 53.1117 46.1853 51.4507 44.9396C48.0155 42.4481 46.2979 37.8049 46.2979 31.0099C46.2979 24.97 48.0532 20.6476 51.5639 18.0429C54.8482 15.6269 59.095 14.4189 64.3044 14.4189C66.5317 14.4189 68.438 14.5322 70.0235 14.7587C71.609 14.9474 73.2134 15.3816 74.8366 16.0611C76.4976 16.7406 77.8188 17.6654 78.8003 18.8357C79.8196 20.0059 80.6501 21.6291 81.2918 23.7054C81.9335 25.7438 82.2544 28.1787 82.2544 31.0099C82.2544 36.7479 80.6312 41.0702 77.3847 43.9769C74.1382 46.8459 69.7781 48.2804 64.3044 48.2804ZM62.3226 37.2386C62.5868 38.5976 62.8511 39.4092 63.1153 39.6735C63.4173 39.9377 63.7948 40.0699 64.2478 40.0699C64.7386 40.0699 65.1161 39.9377 65.3803 39.6735C65.6823 39.4092 65.9466 38.5976 66.1731 37.2386C66.4373 35.8796 66.5694 34.1809 66.5694 32.1424C66.5694 30.0662 66.5128 28.4807 66.3996 27.386C66.3241 26.2535 66.2108 25.3852 66.0598 24.7812C65.9466 24.1772 65.7767 23.7054 65.5502 23.3656C65.2104 22.8749 64.7952 22.6295 64.3044 22.6295C63.8514 22.6295 63.474 22.7805 63.172 23.0825C62.87 23.3467 62.5868 24.1772 62.3226 25.574C62.0583 26.933 61.9262 28.8771 61.9262 31.4063C61.9262 33.9355 62.0583 35.8796 62.3226 37.2386Z" fill="#4F46F2"/>
<path d="M22.7982 46.0143C22.7982 46.505 21.628 46.9014 19.2875 47.2034C16.9848 47.5054 14.6821 47.6564 12.3793 47.6564C10.0766 47.6564 8.60436 47.5243 7.96262 47.26C7.32087 46.9958 7 46.5805 7 46.0143V11.3035C7 10.322 8.05699 9.45373 10.171 8.69873C12.3227 7.94374 14.7953 7.56624 17.5888 7.56624C19.8915 7.56624 21.3826 8.01924 22.0621 8.92523C22.5529 9.56698 22.7982 10.1521 22.7982 10.6806V20.0236H23.2512C23.2512 19.8349 23.8175 18.2683 24.95 15.3238C27.1017 9.7746 28.6683 7 29.6498 7C31.4995 7 34.1043 7.54737 37.464 8.64211C39.0872 9.17061 40.484 9.94447 41.6542 10.9637C42.8244 11.9452 43.4096 13.0399 43.4096 14.2479C43.4096 15.0029 42.6357 16.4752 41.088 18.6646C39.578 20.8164 37.2752 23.7042 34.1798 27.3282C34.897 28.0832 35.803 29.0458 36.8977 30.216C37.9925 31.3863 39.4458 33.1416 41.2578 35.4821C43.1076 37.7849 44.0324 39.427 44.0324 40.4085C44.0324 41.3899 43.1453 42.5413 41.3711 43.8626C39.5968 45.146 37.7094 46.203 35.7086 47.0335C33.7079 47.8263 32.2168 48.2226 31.2353 48.2226C30.5935 48.2226 29.7064 47.26 28.5739 45.3348C27.4792 43.3718 26.1391 40.4462 24.5536 36.558L22.7982 38.6531V46.0143Z" fill="#4F46F2"/>
</svg>
