<svg width="493" height="493" viewBox="0 0 493 493" fill="none" xmlns="http://www.w3.org/2000/svg">
<path d="M330.968 391.935C327.27 400.973 302.456 399.823 299.58 407.547C296.704 415.27 322.011 414.531 321.19 424.226C320.368 433.922 305.085 435.401 277.641 436.962C250.198 438.523 244.117 445.754 216.674 454.71C189.23 463.666 177.152 452.081 161.786 443.7C146.503 435.401 117.17 450.684 107.967 437.784C98.7646 424.802 123.825 420.2 145.928 415.188C168.113 410.094 158.089 407.711 157.514 396.947C157.432 394.729 158.089 393.003 159.321 391.606C164.334 386.183 178.877 386.101 196.296 386.43C218.235 386.923 223.74 379.61 254.306 380.267C282.489 380.842 326.695 382.568 330.721 389.881C331.214 390.538 331.296 391.195 330.968 391.935Z" fill="#99ADF9"/>
<path d="M373.859 407.958C373.612 408.451 373.201 408.944 372.708 409.519C369.175 413.381 357.59 415.763 348.305 415.928C336.801 416.01 324.805 415.27 324.394 408.286C324.066 401.302 353.481 400.891 363.752 402.042C372.626 402.863 375.42 404.917 373.859 407.958Z" fill="#99ADF9"/>
<path d="M146.504 406.807C146.339 407.218 146.011 407.629 145.6 408.04C142.806 411.08 133.686 413.052 126.373 413.134C117.334 413.216 107.803 412.641 107.557 406.972C107.31 401.384 130.481 401.056 138.533 401.959C145.518 402.699 147.818 404.342 146.504 406.807Z" fill="#99ADF9"/>
<path d="M293.664 450.602C285.612 453.806 255.539 453.971 255.621 450.027C255.621 449.534 255.785 449.041 256.114 448.63C258.332 445.508 267.535 443.782 275.834 443.453C285.612 443.125 292.267 444.193 295.225 445.754C297.937 447.233 297.526 449.041 293.664 450.602Z" fill="#99ADF9"/>
<path d="M216.92 440.824C209.525 443.536 186.025 442.878 186.19 438.031C186.19 437.455 186.354 436.88 186.601 436.305C188.573 432.525 194.735 431.129 201.801 430.882C210.018 430.553 216.756 431.868 219.467 433.429C222.918 435.319 223 438.524 216.92 440.824Z" fill="#7C99F2"/>
<path d="M308.043 394.729C303.688 396.865 287.83 396.701 287.912 393.907C287.912 393.578 287.995 393.25 288.159 392.921C289.391 390.785 294.239 389.634 298.676 389.47C303.853 389.306 307.386 390.127 308.865 391.278C310.344 392.346 310.097 393.661 308.043 394.729Z" fill="#7C99F2"/>
<path d="M303.77 424.144C300.237 425.87 287.255 425.705 287.337 423.487C287.337 423.24 287.419 422.912 287.583 422.665C288.569 420.94 292.595 419.954 296.211 419.872C300.483 419.707 303.359 420.447 304.592 421.351C305.66 422.254 305.496 423.323 303.77 424.144Z" fill="#7C99F2"/>
<path d="M264.494 422.747C227.191 433.018 171.235 415.928 171.728 406.15C171.81 404.917 172.304 403.849 173.207 402.863C179.616 395.797 205.745 393.825 229.491 395.222C257.346 396.947 276.162 401.384 284.379 406.15C291.856 410.34 283.557 417.489 264.494 422.747Z" fill="#7C99F2"/>
<path d="M169.757 425.459C166.224 427.431 153.077 427.267 153.241 424.719C153.241 424.391 153.323 424.144 153.488 423.816C154.474 421.844 158.5 420.775 162.115 420.611C166.388 420.447 169.264 421.186 170.496 422.254C171.647 423.323 171.482 424.555 169.757 425.459Z" fill="#7C99F2"/>
<path d="M289.556 136.725C289.556 136.725 287.419 130.07 294.814 129.659C302.209 129.33 294.814 118.402 302.209 112.075C309.604 105.748 318.396 108.542 318.725 117.005C319.053 125.468 317.657 130.727 318.725 132.864C319.793 135 322.915 129.002 326.777 133.192C330.639 137.383 306.728 218.317 306.728 218.317L293.746 215.112L289.556 136.725Z" fill="#D2E9FF"/>
<path d="M313.055 149.625C309.522 151.269 302.291 199.583 308.289 194.817C309.686 193.749 322.093 145.435 313.055 149.625Z" fill="#E3F0FF"/>
<path d="M374.269 98.6C373.941 100.901 373.366 103.037 372.79 104.927C367.039 122.346 351.345 123.004 351.098 125.386C350.852 128.016 362.437 136.725 351.591 147.325C340.745 157.924 318.643 144.449 312.809 143.956C304.592 143.299 287.501 157.924 275.752 142.724C268.192 132.946 280.353 127.441 277.559 124.729C274.766 122.018 252.909 121.525 252.909 96.9567C252.909 96.4637 252.909 95.9707 252.909 95.4777C253.731 70.9099 275.587 72.6354 276.655 67.7875C277.724 62.9397 277.477 34.51 311.987 33.2775C346.579 32.045 345.511 67.048 348.633 68.6914C351.92 70.4169 377.967 74.936 374.269 98.6Z" fill="#E3F0FF"/>
<path d="M346.825 119.059C354.22 116.019 365.313 110.596 372.708 104.927C366.956 122.346 351.262 123.004 351.016 125.386C350.769 128.016 362.355 136.725 351.509 147.325C340.663 157.924 318.56 144.449 312.726 143.956C304.509 143.299 287.419 157.924 275.669 142.723C268.11 132.946 280.27 127.441 277.477 124.729C274.683 122.018 252.827 121.524 252.827 96.9567C254.716 100.818 258.66 106.324 267.124 110.186C281.338 116.677 291.363 109.446 296.375 116.43C301.387 123.414 290.87 127.769 295.553 131.877C300.319 135.986 307.714 125.633 319.546 131.138C331.46 136.643 338.855 140.259 343.539 135.246C348.469 130.152 336.308 123.414 346.825 119.059Z" fill="#D2E9FF"/>
<path d="M290.706 84.1386C290.706 84.1386 290.624 84.0565 290.377 83.8921C290.131 83.7278 289.884 83.4813 289.473 83.0705C288.734 82.331 287.748 81.1806 286.926 79.6195C286.515 78.88 286.104 77.9761 285.776 76.9901C285.447 76.0041 285.283 74.936 285.118 73.7856C285.036 72.6353 285.036 71.485 285.201 70.3346C285.283 69.7595 285.365 69.1843 285.529 68.6091C285.611 68.2805 285.611 68.1161 285.776 67.6231L286.022 66.8015C286.269 65.8155 286.926 64.583 287.583 63.5148C288.241 62.5288 289.145 61.5428 290.048 60.8033C291.034 60.0638 292.02 59.4886 293.006 59.0778C293.992 58.667 295.061 58.4205 295.964 58.2561C296.868 58.0918 297.772 58.0918 298.512 58.0918C299.251 58.0918 299.908 58.0918 300.484 58.174C301.059 58.2561 301.47 58.2561 301.716 58.3383C302.045 58.4205 302.209 58.4205 302.209 58.4205C303.277 58.667 303.935 59.653 303.688 60.7211C303.442 61.7893 302.456 62.4466 301.387 62.2001H301.305H301.141C301.141 62.2001 301.059 62.2001 300.894 62.118C300.648 62.0358 300.401 61.9536 299.908 61.9536C299.498 61.8715 299.005 61.7893 298.347 61.7893C297.772 61.7893 297.115 61.7071 296.375 61.7893C295.636 61.8715 294.896 61.9536 294.157 62.2823C293.417 62.5288 292.596 62.8575 291.938 63.3505C291.199 63.8435 290.541 64.5008 289.966 65.2403C289.391 65.9798 288.98 66.6371 288.569 67.7875L288.241 68.527L288.076 69.1843C287.912 69.6773 287.748 70.1703 287.748 70.6633C287.583 71.6493 287.501 72.6353 287.501 73.5391C287.501 74.443 287.666 75.429 287.83 76.2506C287.994 77.0723 288.323 77.894 288.652 78.5513C289.309 79.9481 290.131 81.0163 290.706 81.6736C291.034 82.0023 291.281 82.2488 291.445 82.4131C291.61 82.5775 291.692 82.6596 291.692 82.6596H291.774C292.103 82.9883 292.185 83.5635 291.856 83.8921C291.61 84.303 291.117 84.3851 290.706 84.1386Z" fill="#D2E9FF"/>
<path d="M300.648 59.9817C300.648 59.9817 300.648 59.8173 300.73 59.4065C300.812 59.0778 300.977 58.5848 301.141 57.9275C301.552 56.695 302.209 54.9695 303.606 53.0797C304.263 52.1758 305.167 51.1898 306.235 50.4503C307.304 49.6287 308.536 48.9713 309.851 48.3962C310.508 48.1497 311.248 47.9853 311.987 47.7388C312.727 47.5745 313.466 47.4923 314.205 47.4102C314.945 47.328 315.685 47.328 316.424 47.328H316.999H317.081H317.328H317.41H317.657L318.642 47.4102C318.971 47.4923 319.218 47.4923 319.629 47.5745L320.861 47.9032C321.272 48.0675 321.683 48.1497 322.094 48.314L323.162 48.807C323.901 49.1357 324.559 49.5465 325.134 50.0395C325.791 50.4503 326.284 51.0255 326.859 51.5185C328.913 53.6548 330.064 56.202 330.721 58.2562C331.378 60.3925 331.707 62.2002 331.871 63.4327C331.954 64.09 331.954 64.583 332.036 64.9117C332.036 65.3225 332.036 65.4868 332.036 65.4868C332.118 66.9658 330.968 68.1983 329.489 68.1983C328.01 68.2805 326.777 67.1302 326.777 65.6512V65.569V65.4047C326.777 65.4047 326.777 65.3225 326.777 65.076C326.777 64.8295 326.777 64.4187 326.695 63.9257C326.613 62.9397 326.448 61.3785 325.955 59.7352C325.462 58.0918 324.641 56.202 323.326 54.723C322.997 54.3943 322.669 53.9835 322.258 53.6548C321.847 53.3262 321.436 52.9975 321.025 52.8332L320.368 52.4223C320.122 52.3402 319.957 52.258 319.711 52.1758L319.053 51.9293C318.807 51.8472 318.396 51.8472 318.15 51.765L317.164 51.6007H316.917H316.835C316.671 51.6007 317.081 51.6007 316.999 51.6007H316.917H316.506C315.931 51.6007 315.356 51.5185 314.781 51.6007C314.206 51.6828 313.63 51.6828 313.137 51.765C312.644 51.9293 312.069 52.0115 311.576 52.1758C310.59 52.5045 309.686 52.9153 308.947 53.4905C308.207 53.9835 307.55 54.6408 307.057 55.2982C305.989 56.6128 305.414 57.9275 305.085 58.9135C304.921 59.4065 304.838 59.7352 304.756 59.9817C304.674 60.2282 304.674 60.3103 304.674 60.3103V60.4747C304.428 61.5428 303.442 62.118 302.373 61.9537C301.059 61.9537 300.484 60.9677 300.648 59.9817Z" fill="#D2E9FF"/>
<path d="M341.485 72.0602C341.485 72.0602 342.06 72.0602 342.963 72.1424C343.867 72.2245 345.1 72.3888 346.579 72.7997C348.058 73.2105 349.783 73.8679 351.427 75.1825C352.248 75.8399 352.988 76.5794 353.645 77.4832C353.974 77.9762 354.22 78.387 354.467 78.9622L354.795 79.7017L354.96 80.5234C355.206 81.345 355.453 82.5775 355.453 83.5635C355.535 84.6317 355.453 85.6177 355.206 86.5215C354.795 88.4114 354.056 90.0547 353.234 91.2872C352.413 92.5197 351.509 93.4235 350.934 93.9987C350.276 94.5739 349.865 94.9025 349.865 94.9025C349.455 95.2312 348.797 95.149 348.469 94.7382C348.14 94.3274 348.222 93.67 348.633 93.3414C348.551 93.4235 350.03 92.2732 351.262 90.0547C351.92 88.9865 352.413 87.5897 352.577 86.0285C352.659 85.289 352.659 84.4674 352.577 83.7279C352.495 82.9062 352.33 82.331 352.002 81.345L351.838 80.7699L351.591 80.2768C351.427 79.9482 351.18 79.6195 351.016 79.373C350.605 78.7978 350.03 78.387 349.455 77.9762C348.222 77.2367 346.908 76.7437 345.675 76.4972C344.443 76.2507 343.457 76.1685 342.717 76.1685C341.978 76.1685 341.649 76.1685 341.649 76.1685C340.498 76.1685 339.513 75.2647 339.513 74.1143C339.43 73.0462 340.334 72.0602 341.485 72.0602Z" fill="#D2E9FF"/>
<path d="M286.926 82.0845C286.926 82.0845 286.844 82.0845 286.762 82.0845C286.597 82.0845 286.433 82.1667 286.186 82.2488C285.611 82.4132 284.872 82.6597 284.05 83.2348C283.639 83.4813 283.228 83.81 282.9 84.2208C282.489 84.6317 282.16 85.1247 281.914 85.6998C281.667 86.275 281.421 86.8502 281.256 87.5897C281.092 88.247 281.01 89.0687 281.01 89.726C281.01 90.6298 281.092 91.205 281.256 91.8623C281.421 92.5197 281.667 93.177 282.078 93.7522C282.818 94.9025 283.804 95.7242 284.79 96.2993C285.776 96.8745 286.679 97.2032 287.337 97.3675C287.994 97.5318 288.405 97.614 288.323 97.614C288.734 97.614 289.062 98.0248 288.98 98.4357C288.98 98.8465 288.569 99.1752 288.158 99.093C288.158 99.093 287.665 99.093 286.926 98.9287C286.186 98.7643 285.118 98.5178 283.804 98.0248C282.571 97.4497 281.174 96.5458 280.024 95.149C279.449 94.4095 279.038 93.5878 278.709 92.7662C278.545 92.3553 278.463 91.7802 278.298 91.3693C278.134 90.8763 278.134 90.5477 278.052 90.0547C278.052 89.8082 277.97 89.726 277.97 89.3152V88.6578C277.97 88.1648 277.97 87.754 278.052 87.261C278.134 86.3572 278.298 85.3712 278.627 84.5495C278.956 83.6457 279.367 82.824 279.942 82.1667C280.435 81.4272 281.01 80.852 281.667 80.359C282.818 79.373 283.968 78.88 284.79 78.5513C285.2 78.387 285.529 78.3048 285.776 78.2227C286.022 78.1405 286.186 78.1405 286.186 78.1405C287.337 77.894 288.487 78.5513 288.734 79.7017C288.98 80.852 288.323 82.0023 287.172 82.2488C287.09 82.0845 287.008 82.0845 286.926 82.0845Z" fill="#D2E9FF"/>
<path d="M337.294 106.899C337.294 106.899 337.294 107.474 337.13 108.378C336.965 109.282 336.719 110.514 336.226 111.993C335.733 113.472 334.993 115.198 333.596 116.759C332.939 117.498 332.117 118.238 331.131 118.813C330.638 119.059 330.145 119.388 329.652 119.552L328.831 119.799L328.091 119.963C327.27 120.21 326.037 120.292 325.051 120.292C323.983 120.292 322.997 120.128 322.093 119.963C320.203 119.47 318.642 118.649 317.41 117.745C316.177 116.841 315.355 115.937 314.78 115.28C314.205 114.622 313.959 114.212 313.959 114.129C313.63 113.719 313.794 113.061 314.205 112.733C314.616 112.404 315.273 112.568 315.602 112.979C315.602 112.897 316.588 114.376 318.806 115.773C319.875 116.43 321.271 117.087 322.75 117.334C323.49 117.498 324.312 117.498 325.051 117.416C325.873 117.334 326.448 117.252 327.434 116.923L328.009 116.759L328.502 116.512C328.831 116.348 329.159 116.184 329.406 115.937C329.981 115.526 330.474 114.951 330.885 114.458C331.707 113.308 332.2 111.993 332.528 110.761C332.857 109.528 332.939 108.542 333.021 107.803C333.103 107.063 333.021 106.734 333.021 106.734C333.021 105.584 334.007 104.68 335.158 104.68C336.39 104.762 337.376 105.666 337.294 106.899Z" fill="#D2E9FF"/>
<path d="M272.054 174.851L268.603 165.237C268.603 165.237 276.573 164.005 272.383 153.57C270 147.736 263.262 152.337 263.262 152.337C263.262 152.337 262.112 143.874 253.32 145.764C246.418 147.243 246.254 158.335 248.965 161.868C251.594 165.402 254.306 165.073 254.306 165.073C254.306 165.073 248.554 164.909 249.458 170.167C250.362 175.426 254.881 175.672 258.332 173.947C259.975 173.125 261.208 171.071 261.208 171.071L268.685 177.234C269.342 177.809 270.328 177.891 271.15 177.48C272.054 177.069 272.465 175.919 272.054 174.851Z" fill="#D2E9FF"/>
<path d="M354.056 196.378C353.727 197.94 353.152 199.336 352.495 200.076C350.523 202.377 347.401 202.623 347.401 202.623C347.401 202.623 350.194 204.184 348.14 207.553C346.579 210.018 341.978 208.539 340.745 206.978C339.43 205.417 339.43 203.609 339.43 203.609L333.843 208.375C332.939 209.196 331.46 209.114 330.639 208.128C329.899 207.307 329.899 205.992 330.639 205.17L331.378 204.349L335.897 199.008C335.897 199.008 329.488 196.378 331.789 191.613C333.843 187.258 337.951 189.312 339.02 190.462C340.006 191.531 340.17 193.338 340.17 193.338C340.17 193.338 342.06 186.025 348.88 187.669C353.974 188.819 354.713 193.01 354.056 196.378Z" fill="#D2E9FF"/>
<path d="M179.37 296.868C180.685 298.676 180.767 301.141 179.452 303.031L178.959 303.688C178.466 304.345 177.727 304.674 176.987 304.674C176.412 304.674 175.919 304.51 175.426 304.099L167.538 297.197C167.538 297.197 163.676 306.153 153.159 304.099C145.846 302.62 143.956 296.375 144.778 291.199C145.107 288.651 146.093 286.351 147.407 284.954C149.708 282.489 152.666 282.16 154.802 282.242C152.666 281.585 149.626 279.86 148.475 275.587C147.736 272.875 147.9 270.164 148.886 268.028C150.447 264.659 153.981 262.522 158.993 263.098C167.292 264.166 167.456 275.916 167.456 275.916C167.456 275.916 170.332 267.945 178.22 271.396C185.122 274.437 183.15 283.639 178.466 287.255C176.001 289.144 173.865 289.555 173.865 289.555L179.37 296.868Z" fill="#E1ECFF"/>
<path d="M161.54 283.721C161.54 283.721 158.171 283.064 154.884 282.16C152.748 281.503 149.708 279.86 148.475 275.505C147.736 272.793 147.9 270.082 148.886 267.945C149.379 270.821 150.694 275.34 153.898 278.298C158.91 282.9 161.54 283.721 161.54 283.721Z" fill="#C5DFFF"/>
<path d="M178.959 303.606C178.466 304.263 177.727 304.592 176.987 304.592C176.412 304.592 175.919 304.427 175.426 304.017L167.538 297.115C167.538 297.115 163.676 306.071 153.159 304.017C145.846 302.538 143.956 296.293 144.778 291.116C145.928 293.581 148.475 296.375 154.309 297.361C165.977 299.415 166.306 292.102 166.306 292.102L178.959 303.606Z" fill="#C5DFFF"/>
<path d="M210.265 278.709C209.196 278.709 205.663 278.463 202.459 275.505C199.254 272.547 197.611 267.863 197.529 261.701C197.364 247.157 194.571 245.185 191.531 244.281C187.258 243.049 182.657 244.692 182.657 244.692C181.013 245.35 179.206 244.528 178.548 242.885C177.891 241.241 178.713 239.434 180.356 238.776C180.602 238.694 186.847 236.311 193.256 238.119C201.801 240.584 203.691 248.883 203.773 261.536C203.856 265.809 204.842 269.014 206.567 270.739C208.21 272.3 210.1 272.3 210.1 272.3C211.826 272.136 213.305 273.615 213.387 275.34C213.469 277.066 212.154 278.545 210.429 278.627C210.511 278.709 210.429 278.709 210.265 278.709Z" fill="#FF97C9"/>
<path d="M207.717 234.504C206.896 235.243 204.513 237.873 204.184 242.145C203.938 246.5 205.91 251.019 210.1 255.621C219.878 266.302 219.303 269.671 217.659 272.383C215.359 276.244 210.922 278.134 210.922 278.134C209.278 278.792 208.539 280.599 209.196 282.243C209.854 283.886 211.661 284.625 213.305 283.968C213.551 283.886 219.796 281.339 223.165 275.587C227.684 267.863 223.329 260.633 214.866 251.266C211.99 248.143 210.511 245.103 210.593 242.638C210.675 240.338 212.072 239.105 212.154 239.023C213.469 237.955 213.551 235.901 212.401 234.586C211.25 233.271 209.361 233.107 207.964 234.257C207.882 234.339 207.799 234.422 207.717 234.504Z" fill="#99ADF9"/>
<path d="M353.316 253.32C350.194 253.32 346.743 252.334 343.621 249.869C338.28 245.761 334.747 248.554 334.747 248.636C333.432 249.787 331.378 249.622 330.31 248.226C329.159 246.911 329.324 244.857 330.721 243.789C333.268 241.652 340.088 239.105 347.565 244.857C351.591 247.979 355.864 247.157 357.507 245.596C359.068 244.199 359.972 240.173 360.136 237.79C360.218 236.065 361.78 234.668 363.505 234.832C365.231 234.915 366.545 236.476 366.463 238.201C366.381 239.023 365.806 246.664 361.78 250.28C359.725 252.17 356.685 253.32 353.316 253.32Z" fill="#99ADF9"/>
<path d="M351.673 292.431L377.885 321.765C377.885 321.765 370.243 308.618 363.67 300.319C356.768 291.774 351.673 292.431 351.673 292.431Z" fill="#E1ECFF"/>
<path d="M372.297 305.906C372.297 305.906 365.559 297.854 364.573 296.622C361.944 293.417 360.054 292.431 360.054 292.431C360.054 292.431 362.437 292.102 365.559 296.046C368.682 299.908 372.297 305.906 372.297 305.906Z" fill="#E1ECFF"/>
<path d="M332.118 278.545L343.95 258.168L336.883 276.984L347.318 287.337L332.118 278.545Z" fill="#FEC272"/>
<path d="M350.605 268.356L333.597 277.477L337.787 279.038L350.605 268.356Z" fill="#FEC272"/>
<path d="M178.795 232.45L172.632 225.301C171.893 224.397 171.975 223.083 172.879 222.261C173.783 221.521 175.097 221.604 175.919 222.507C176.083 222.672 176.166 222.836 176.248 223L180.192 231.546C180.356 231.957 180.192 232.45 179.781 232.614C179.452 232.86 179.041 232.778 178.795 232.45Z" fill="#FEC272"/>
<path d="M173.125 240.255L161.54 241.406C160.389 241.488 159.321 240.666 159.239 239.516C159.157 238.366 159.979 237.297 161.129 237.215C161.293 237.215 161.458 237.215 161.622 237.215L173.125 238.612C173.618 238.694 173.865 239.105 173.865 239.516C173.783 239.927 173.536 240.255 173.125 240.255Z" fill="#FEC272"/>
<path d="M178.22 249.787L172.55 256.853C171.811 257.757 170.496 257.921 169.592 257.182C168.688 256.442 168.524 255.128 169.264 254.224C169.346 254.059 169.51 253.895 169.674 253.813L177.069 248.554C177.48 248.308 177.973 248.39 178.302 248.719C178.548 249.047 178.466 249.458 178.22 249.787Z" fill="#FEC272"/>
<path d="M212.565 228.259L216.92 222.507C217.495 221.768 218.481 221.686 219.221 222.179C219.96 222.754 220.042 223.74 219.549 224.479C219.467 224.562 219.385 224.726 219.221 224.808L213.469 229.163C213.222 229.409 212.812 229.327 212.565 229.081C212.401 228.834 212.401 228.505 212.565 228.259Z" fill="#FEC272"/>
<path d="M205.827 225.301L203.034 216.838C202.787 216.016 203.198 215.03 204.102 214.784C204.924 214.537 205.91 214.948 206.156 215.852C206.156 215.934 206.238 216.098 206.238 216.18L207.06 225.054C207.06 225.383 206.813 225.712 206.485 225.712C206.156 225.712 205.91 225.547 205.827 225.301Z" fill="#FEC272"/>
<path d="M199.501 230.642L193.256 227.519C192.435 227.109 192.106 226.123 192.517 225.301C192.928 224.479 193.914 224.151 194.735 224.561C194.9 224.644 194.982 224.726 195.146 224.808L200.323 229.491C200.569 229.738 200.651 230.149 200.405 230.477C200.076 230.724 199.747 230.806 199.501 230.642Z" fill="#FEC272"/>
<path d="M365.231 219.96L363.752 228.423C363.67 228.916 363.259 229.163 362.766 229.081C362.355 228.998 362.109 228.67 362.027 228.341L360.958 219.796C360.794 218.645 361.616 217.577 362.848 217.413C363.999 217.249 365.067 218.07 365.231 219.303C365.313 219.549 365.313 219.714 365.231 219.96Z" fill="#FEC272"/>
<path d="M380.103 227.93L371.476 233.6C370.9 233.928 370.161 233.846 369.832 233.271C369.504 232.778 369.586 232.121 369.997 231.71L377.556 224.644C378.378 223.822 379.774 223.904 380.514 224.726C381.336 225.547 381.253 226.944 380.432 227.684C380.267 227.766 380.185 227.848 380.103 227.93Z" fill="#FEC272"/>
<path d="M378.706 246.007L371.311 242.474C370.818 242.227 370.572 241.652 370.818 241.077C370.983 240.666 371.476 240.42 371.887 240.502L379.939 241.899C381.089 242.063 381.911 243.213 381.664 244.364C381.5 245.514 380.35 246.336 379.199 246.089C379.117 246.171 378.953 246.089 378.706 246.007Z" fill="#FEC272"/>
<path d="M262.933 205.745C262.933 205.745 228.341 247.157 227.026 246.089C226.698 245.843 226.123 243.953 225.383 240.913C223.411 232.285 220.7 214.208 220.371 194.981C219.96 169.099 220.617 161.211 227.519 158.006C232.614 155.624 246.5 178.548 255.62 193.913C258.907 199.172 261.454 203.527 262.933 205.745Z" fill="#FF97C9"/>
<path d="M262.933 205.745C262.933 205.745 228.341 247.157 227.027 246.089C226.698 245.843 226.123 243.953 225.383 240.913C228.752 232.285 232.86 223.165 237.38 216.263C244.692 205.252 251.266 198.104 255.621 193.913C258.907 199.172 261.454 203.527 262.933 205.745Z" fill="#FC75BC"/>
<path d="M382.732 348.14C380.596 352.577 360.794 346.415 344.607 340.827C341.485 339.759 338.444 338.691 335.651 337.705C329.242 335.487 324.969 329.406 324.969 322.586C325.051 306.728 323.572 281.503 326.612 280.188C330.228 278.545 348.14 296.211 364.491 315.191C381.418 334.829 385.937 341.32 382.732 348.14Z" fill="#FF97C9"/>
<path d="M344.607 340.828C341.485 339.76 338.444 338.692 335.651 337.706C329.242 335.487 324.969 329.407 324.969 322.587C325.051 306.729 323.572 281.504 326.612 280.189C326.695 280.189 333.432 301.06 338.034 317.493C340.663 327.024 342.881 334.83 344.607 340.828Z" fill="#FC75BC"/>
<path d="M332.775 239.105C332.2 261.537 328.913 298.84 315.52 335.815C303.935 367.86 293.91 389.141 287.255 401.713C281.75 412.066 278.545 416.667 278.545 416.667C278.545 416.667 269.836 421.022 253.074 422.337C243.707 423.076 231.875 422.912 217.66 420.529C177.891 413.873 173.701 401.384 173.701 401.384C173.701 401.384 173.125 394.236 175.015 380.185C177.398 362.109 183.971 332.693 201.144 292.513C220.453 247.568 242.474 221.111 256.114 207.717C264.166 199.829 269.343 196.461 269.343 196.461C269.343 196.461 280.024 192.106 302.127 199.008C310.919 201.719 317.574 205.252 322.258 208.621C329.489 213.633 332.447 218.07 332.447 218.07C332.447 218.07 333.186 226.123 332.775 239.105Z" fill="#E1ECFF"/>
<path d="M332.775 239.105C332.2 261.537 328.914 298.84 315.52 335.815C303.935 367.86 293.911 389.141 287.255 401.713C281.75 412.066 278.545 416.667 278.545 416.667C278.545 416.667 269.836 421.022 253.074 422.337C263.755 407.711 279.614 382.322 295.39 343.868C321.026 281.421 322.587 226.534 322.34 208.621C329.571 213.633 332.529 218.07 332.529 218.07C332.529 218.07 333.186 226.123 332.775 239.105Z" fill="#C5DFFF"/>
<path d="M184.382 376.652C184.136 376.652 183.971 376.652 183.725 376.57C181.424 376.241 179.863 374.023 180.192 371.722C180.438 370.325 185.697 336.472 200.24 302.373C214.784 268.356 226.287 251.676 226.78 250.937C228.095 249.047 230.724 248.554 232.696 249.869C234.586 251.183 235.079 253.813 233.764 255.785C233.682 255.949 222.179 272.547 208.046 305.66C193.913 338.773 188.573 372.626 188.573 372.954C188.162 375.173 186.354 376.652 184.382 376.652Z" fill="#F8FBFF"/>
<path d="M332.775 239.106C329.899 236.559 326.202 233.601 321.765 230.561C319.957 229.328 317.985 228.014 315.849 226.699C314.698 226.042 313.548 225.302 312.316 224.645C307.468 221.851 301.963 219.222 295.964 216.921C295.471 216.757 295.061 216.592 294.568 216.428C293.664 216.099 292.842 215.771 292.02 215.524C285.118 213.059 279.038 211.416 273.861 210.266C272.382 209.937 270.904 209.69 269.589 209.362C263.837 208.294 259.4 207.965 256.278 207.8C264.33 199.912 269.507 196.544 269.507 196.544C269.507 196.544 272.793 195.229 279.531 195.229C281.01 195.229 282.653 195.311 284.461 195.475C288.734 195.804 293.91 196.708 299.991 198.434C300.73 198.68 301.552 198.844 302.291 199.091C302.866 199.255 303.441 199.42 304.017 199.666C308.782 201.309 312.891 203.117 316.342 204.925C317.738 205.664 318.971 206.404 320.204 207.225C321.025 207.718 321.682 208.211 322.422 208.704C329.653 213.717 332.611 218.154 332.611 218.154C332.611 218.154 333.186 226.124 332.775 239.106Z" fill="#1C3177"/>
<path d="M332.775 239.105C329.899 236.558 326.202 233.6 321.765 230.56C322.422 220.946 322.422 213.469 322.422 208.703C329.653 213.716 332.611 218.153 332.611 218.153C332.611 218.153 333.186 226.123 332.775 239.105Z" fill="#142966"/>
<path d="M320.203 207.224L316.424 225.712C316.342 226.123 316.177 226.451 315.849 226.78C314.698 226.123 313.548 225.383 312.315 224.726L316.342 205.006C317.738 205.745 319.053 206.485 320.203 207.224Z" fill="#142966"/>
<path d="M304.017 199.665L295.965 216.92C295.472 216.756 295.061 216.591 294.568 216.427C293.664 216.098 292.842 215.77 292.021 215.523L299.909 198.432C300.648 198.679 301.47 198.843 302.209 199.09C302.867 199.336 303.442 199.501 304.017 199.665Z" fill="#142966"/>
<path d="M284.461 195.475C284.379 195.639 284.297 195.803 284.214 195.968L273.862 210.265C272.383 209.936 270.904 209.689 269.589 209.361C269.671 209.032 269.753 208.703 270 208.375L279.531 195.146C281.01 195.228 282.653 195.31 284.461 195.475Z" fill="#142966"/>
<path d="M225.009 391.132C244.325 397.758 267.433 381.417 276.622 354.632C285.81 327.847 277.601 300.762 258.285 294.135C238.969 287.509 215.861 303.85 206.672 330.635C197.484 357.42 205.693 384.505 225.009 391.132Z" fill="#C5DFFF"/>
<path d="M227.655 389.029C246.971 395.655 269.995 379.557 279.081 353.073C288.166 326.589 279.873 299.747 260.557 293.12C241.241 286.494 218.217 302.592 209.131 329.076C200.046 355.56 208.339 382.402 227.655 389.029Z" fill="#1C3177"/>
<path d="M229.569 379.857C244.893 385.114 263.272 372.012 270.62 350.593C277.968 329.174 271.503 307.548 256.179 302.291C240.855 297.034 222.475 310.136 215.127 331.555C207.779 352.975 214.245 374.6 229.569 379.857Z" fill="#99ADF9"/>
<path d="M237.339 328.618C241.717 330.12 246.973 326.361 249.079 320.223C251.185 314.085 249.343 307.891 244.964 306.389C240.586 304.887 235.33 308.646 233.224 314.784C231.118 320.922 232.96 327.116 237.339 328.618Z" fill="#C5DFFF"/>
<path d="M227.297 355.612C229.658 356.422 232.479 354.434 233.598 351.172C234.717 347.91 233.711 344.608 231.35 343.799C228.989 342.989 226.168 344.977 225.049 348.239C223.93 351.501 224.936 354.802 227.297 355.612Z" fill="#C5DFFF"/>
<path d="M270.657 350.605C263.262 372.051 244.939 385.115 229.574 379.856C221.522 377.063 215.852 369.75 213.469 360.301C215.441 361.615 217.578 362.766 219.878 363.505C238.941 370.079 261.865 353.727 270.986 327.023C271.561 325.38 272.054 323.737 272.465 322.093C274.519 330.556 274.108 340.663 270.657 350.605Z" fill="#7C99F2"/>
<path d="M287.337 401.795C281.832 412.148 278.627 416.749 278.627 416.749C278.627 416.749 269.918 421.104 253.156 422.419C243.789 423.158 231.957 422.994 217.742 420.611C203.034 418.146 193.256 414.86 186.683 411.737C175.508 406.396 173.783 401.466 173.783 401.466C173.783 401.466 173.207 394.318 175.097 380.267C178.548 383.472 183.15 387.087 189.23 390.456C198.597 395.633 211.333 400.48 228.67 403.028C241.652 404.917 254.059 405.164 265.152 404.424C273.369 404.014 280.846 402.945 287.337 401.795Z" fill="#FF97C9"/>
<path d="M287.337 401.795C281.832 412.148 278.627 416.749 278.627 416.749C278.627 416.749 269.918 421.104 253.156 422.419C256.689 417.571 260.715 411.655 265.152 404.424C273.369 404.014 280.846 402.945 287.337 401.795Z" fill="#FC75BC"/>
<path d="M189.23 390.539L186.683 411.82C175.508 406.479 173.783 401.549 173.783 401.549C173.783 401.549 173.207 394.4 175.097 380.35C178.548 383.554 183.15 387.088 189.23 390.539Z" fill="#FCB6DA"/>
</svg>
