<svg width="24" height="24" viewBox="0 0 24 24" fill="none" xmlns="http://www.w3.org/2000/svg">
<path d="M12 22.75C17.93 22.75 22.75 17.93 22.75 12C22.75 6.07 17.93 1.25 12 1.25C6.07 1.25 1.25 6.07 1.25 12C1.25 17.93 6.07 22.75 12 22.75ZM12 2.75C17.1 2.75 21.25 6.9 21.25 12C21.25 17.1 17.1 21.25 12 21.25C6.9 21.25 2.75 17.1 2.75 12C2.75 6.9 6.9 2.75 12 2.75Z" fill="#71717A"/>
<path d="M9.5 12.75H15.5C15.91 12.75 16.25 12.41 16.25 12C16.25 11.59 15.91 11.25 15.5 11.25H9.5C9.09 11.25 8.75 11.59 8.75 12C8.75 12.41 9.09 12.75 9.5 12.75Z" fill="#71717A"/>
<path d="M11.5001 15.7499C11.6901 15.7499 11.8801 15.6799 12.0301 15.5299C12.3201 15.2399 12.3201 14.7599 12.0301 14.4699L9.56006 11.9999L12.0301 9.52994C12.3201 9.23994 12.3201 8.75994 12.0301 8.46994C11.7401 8.17994 11.2601 8.17994 10.9701 8.46994L7.97006 11.4699C7.68006 11.7599 7.68006 12.2399 7.97006 12.5299L10.9701 15.5299C11.1201 15.6799 11.3101 15.7499 11.5001 15.7499Z" fill="#71717A"/>
</svg>
