<svg viewBox="0 0 24 24" fill="none" xmlns="http://www.w3.org/2000/svg">
<g clip-path="url(#clip0_2018_3785)">
<path d="M4.69468 18.0817C3.16289 17.9392 1.8755 16.8187 1.66339 15.295C1.42067 13.5515 1.28577 11.759 1.28577 9.91385C1.28577 8.00356 1.42072 6.12388 1.68058 4.32424C1.88611 2.90092 3.04788 1.82657 4.47811 1.67636C6.89426 1.42258 9.41858 1.28577 12.0001 1.28577C14.5735 1.28577 17.0532 1.43082 19.4716 1.68087C20.9262 1.83127 22.1075 2.92793 22.3141 4.37561C22.5688 6.16133 22.7143 8.02008 22.7143 9.91385C22.7143 11.7926 22.5553 13.6192 22.3048 15.3926C22.0965 16.868 20.8963 17.9939 19.414 18.1446C17.0191 18.3878 14.55 18.5419 12.0001 18.5419C11.939 18.5419 11.878 18.5418 11.817 18.5416C10.019 20.6099 8.64038 21.6321 6.23083 22.7143V18.2239C5.84014 18.1886 5.4517 18.1523 5.06565 18.1163C4.94174 18.1048 4.81809 18.0931 4.69468 18.0817Z" fill="#D7E0FF" stroke="#4147D5" stroke-width="1.73116" stroke-linecap="round" stroke-linejoin="round"/>
</g>
<defs>
<clipPath id="clip0_2018_3785">
<rect width="24" height="24" fill="white"/>
</clipPath>
</defs>
</svg>
