<svg width="40" height="40" viewBox="0 0 40 40" fill="none" xmlns="http://www.w3.org/2000/svg">
<path d="M14.8503 34.45C14.5337 34.45 14.217 34.3334 13.967 34.0834C13.4837 33.6 13.4837 32.8 13.967 32.3167L24.8337 21.45C25.6337 20.65 25.6337 19.35 24.8337 18.55L13.967 7.68337C13.4837 7.20003 13.4837 6.40003 13.967 5.9167C14.4503 5.43337 15.2503 5.43337 15.7337 5.9167L26.6003 16.7834C27.4503 17.6334 27.9337 18.7834 27.9337 20C27.9337 21.2167 27.467 22.3667 26.6003 23.2167L15.7337 34.0834C15.4837 34.3167 15.167 34.45 14.8503 34.45Z" fill="#52525B"/>
</svg>
