<svg viewBox="0 0 40 40" fill="none" xmlns="http://www.w3.org/2000/svg">
<g id="cloud-upload">
<path id="Vector" d="M11.0001 25.9999C9.20913 25.9975 7.4872 25.3088 6.18862 24.0754C4.89004 22.8421 4.11359 21.1579 4.01905 19.3694C3.9245 17.581 4.51905 15.8243 5.68035 14.4609C6.84165 13.0975 8.48136 12.2311 10.2621 12.0399C9.73775 9.98366 10.0517 7.80337 11.1349 5.97864C12.2181 4.15391 13.9819 2.83422 16.0381 2.30989C18.0943 1.78555 20.2746 2.09953 22.0993 3.18274C23.9241 4.26595 25.2437 6.02966 25.7681 8.08589C26.991 7.91561 28.2358 7.99878 29.4252 8.33022C30.6146 8.66165 31.723 9.23427 32.6816 10.0125C33.6402 10.7906 34.4284 11.7577 34.9973 12.8536C35.5661 13.9494 35.9033 15.1506 35.988 16.3824C36.0728 17.6142 35.9031 18.8502 35.4897 20.0136C35.0762 21.177 34.4278 22.2429 33.5848 23.145C32.7417 24.0471 31.7221 24.7661 30.5893 25.2572C29.4565 25.7483 28.2348 26.0011 27.0001 25.9999H22.0001V18.8259L24.5861 21.4119C24.9633 21.7762 25.4685 21.9778 25.9929 21.9732C26.5173 21.9687 27.0189 21.7583 27.3897 21.3875C27.7605 21.0167 27.9709 20.5151 27.9754 19.9907C27.98 19.4663 27.7784 18.9611 27.4141 18.5839L21.4141 12.5839C21.039 12.2089 20.5304 11.9983 20.0001 11.9983C19.4698 11.9983 18.9611 12.2089 18.5861 12.5839L12.5861 18.5839C12.2218 18.9611 12.0202 19.4663 12.0247 19.9907C12.0293 20.5151 12.2396 21.0167 12.6104 21.3875C12.9813 21.7583 13.4829 21.9687 14.0073 21.9732C14.5317 21.9778 15.0369 21.7762 15.4141 21.4119L18.0001 18.8279V25.9999H11.0001Z" fill="currentColor"/>
<path id="Vector_2" d="M18 26H22V36C22 36.5304 21.7893 37.0391 21.4142 37.4142C21.0391 37.7893 20.5304 38 20 38C19.4696 38 18.9609 37.7893 18.5858 37.4142C18.2107 37.0391 18 36.5304 18 36V26Z" fill="white"/>
</g>
</svg>
