<svg viewBox="0 0 16 16" fill="none" xmlns="http://www.w3.org/2000/svg">
<path d="M8.00004 15.2067C7.54004 15.2067 7.10671 14.9734 6.80004 14.5667L5.80004 13.2334C5.78004 13.2067 5.70004 13.1734 5.66671 13.1667H5.33337C2.55337 13.1667 0.833374 12.4134 0.833374 8.66671V5.33337C0.833374 2.38671 2.38671 0.833374 5.33337 0.833374H10.6667C13.6134 0.833374 15.1667 2.38671 15.1667 5.33337V8.66671C15.1667 11.6134 13.6134 13.1667 10.6667 13.1667H10.3334C10.28 13.1667 10.2334 13.1934 10.2 13.2334L9.20004 14.5667C8.89337 14.9734 8.46004 15.2067 8.00004 15.2067ZM5.33337 1.83337C2.94671 1.83337 1.83337 2.94671 1.83337 5.33337V8.66671C1.83337 11.68 2.86671 12.1667 5.33337 12.1667H5.66671C6.00671 12.1667 6.39337 12.36 6.60004 12.6334L7.60004 13.9667C7.83337 14.2734 8.16671 14.2734 8.40004 13.9667L9.40004 12.6334C9.62004 12.34 9.96671 12.1667 10.3334 12.1667H10.6667C13.0534 12.1667 14.1667 11.0534 14.1667 8.66671V5.33337C14.1667 2.94671 13.0534 1.83337 10.6667 1.83337H5.33337Z" fill="#292D32"/>
<path d="M11.3333 5.83337H4.66663C4.39329 5.83337 4.16663 5.60671 4.16663 5.33337C4.16663 5.06004 4.39329 4.83337 4.66663 4.83337H11.3333C11.6066 4.83337 11.8333 5.06004 11.8333 5.33337C11.8333 5.60671 11.6066 5.83337 11.3333 5.83337Z" fill="#292D32"/>
<path d="M8.66663 9.16663H4.66663C4.39329 9.16663 4.16663 8.93996 4.16663 8.66663C4.16663 8.39329 4.39329 8.16663 4.66663 8.16663H8.66663C8.93996 8.16663 9.16663 8.39329 9.16663 8.66663C9.16663 8.93996 8.93996 9.16663 8.66663 9.16663Z" fill="#292D32"/>
</svg>
