<svg viewBox="0 0 24 24" fill="none" xmlns="http://www.w3.org/2000/svg">
<g clip-path="url(#clip0_2018_1609)">
<path d="M1.71848 19.1108C1.9023 20.7565 3.21777 22.0714 4.86265 22.2616C6.72131 22.4766 8.64191 22.6887 10.607 22.6887C12.572 22.6887 14.4926 22.4766 16.3513 22.2616C17.9962 22.0714 19.3116 20.7565 19.4955 19.1108C19.7021 17.2611 19.9015 15.3497 19.9015 13.3941C19.9015 11.4386 19.7021 9.52728 19.4955 7.67743C19.3116 6.03182 17.9962 4.71698 16.3513 4.52671C14.4926 4.3117 12.572 4.09961 10.607 4.09961C8.64191 4.09961 6.72131 4.3117 4.86265 4.52671C3.21777 4.71698 1.9023 6.03182 1.71848 7.67743C1.51184 9.52728 1.31244 11.4386 1.31244 13.3941C1.31244 15.3497 1.51184 17.2611 1.71848 19.1108Z" fill="white"/>
<path d="M9.23984 4.13159C7.74961 4.19871 6.28792 4.36187 4.86267 4.52673C3.21778 4.717 1.9023 6.03184 1.71848 7.67745C1.51184 9.52731 1.31244 11.4386 1.31244 13.3942C1.31244 15.3497 1.51184 17.261 1.71848 19.1109C1.9023 20.7565 3.21777 22.0713 4.86265 22.2616C6.72131 22.4766 8.64191 22.6888 10.607 22.6888C12.572 22.6888 14.4926 22.4766 16.3513 22.2616C17.9962 22.0713 19.3116 20.7566 19.4955 19.1109C19.6442 17.7803 19.789 16.4178 19.8586 15.0299" stroke="#4147D5" stroke-width="1.73116" stroke-linecap="round"/>
<path d="M17.3287 2.23312L11.0118 9.40083L10.1464 13.4711C10.0071 14.126 10.6898 14.7457 11.3291 14.5447L15.3796 13.2713L21.9045 6.40578C22.9881 5.26549 22.799 3.35828 21.4872 2.19803C20.2063 1.06496 18.3444 1.08067 17.3287 2.23312Z" fill="#D7E0FF" stroke="#4147D5" stroke-width="1.73116" stroke-linecap="round" stroke-linejoin="round"/>
</g>
<defs>
<clipPath id="clip0_2018_1609">
<rect width="24" height="24" fill="white"/>
</clipPath>
</defs>
</svg>
