<svg viewBox="0 0 24 24" fill="none" xmlns="http://www.w3.org/2000/svg">
<path d="M22.7915 14.3935C22.7915 12.5381 22.73 10.6387 22.6505 9.39268C22.5936 8.49952 22.2883 7.82947 21.8554 7.65645C21.5753 7.54452 21.2273 7.46173 20.811 7.46173C20.3946 7.46173 20.0467 7.5445 19.7666 7.65643C19.3337 7.82947 19.0284 8.49952 18.9715 9.3927C18.892 10.6387 18.8305 12.5381 18.8305 14.3935C18.8305 16.249 18.8919 18.1483 18.9714 19.3943C19.0284 20.2875 19.3336 20.9575 19.7666 21.1306C20.0466 21.2426 20.3946 21.3253 20.811 21.3253C21.2274 21.3253 21.5753 21.2426 21.8554 21.1306C22.2883 20.9575 22.5936 20.2875 22.6506 19.3943C22.73 18.1483 22.7915 16.249 22.7915 14.3935Z" fill="#D7E0FF" stroke="#4147D5" stroke-width="1.73116"/>
<path d="M5.95703 16.374C5.95703 15.0487 5.89556 13.692 5.81608 12.802C5.7591 12.164 5.45384 11.6854 5.02089 11.5618C4.74084 11.4819 4.39286 11.4227 3.9765 11.4227C3.56014 11.4227 3.21219 11.4819 2.93216 11.5618C2.49921 11.6854 2.19396 12.164 2.13699 12.802C2.05752 13.692 1.99606 15.0487 1.99602 16.374C1.99598 17.6993 2.05746 19.056 2.13694 19.946C2.19391 20.584 2.49917 21.0626 2.93213 21.1862C3.21218 21.2662 3.56016 21.3253 3.97652 21.3253C4.39289 21.3253 4.74087 21.2662 5.02092 21.1862C5.45388 21.0626 5.75913 20.584 5.8161 19.946C5.89558 19.056 5.95703 17.6993 5.95703 16.374Z" fill="#D7E0FF" stroke="#4147D5" stroke-width="1.73116"/>
<path d="M9.91797 11.9178C9.91797 8.70802 10.0072 5.90766 10.1178 4.341C10.1774 3.49562 10.547 2.85762 11.0882 2.69427C11.4382 2.5886 11.8732 2.51044 12.3937 2.51044C12.9141 2.51044 13.349 2.58858 13.6991 2.69425C14.2403 2.85762 14.6099 3.49562 14.6694 4.341C14.78 5.90766 14.8692 8.70802 14.8692 11.9178C14.8692 15.1277 14.78 17.928 14.6696 19.4948C14.6099 20.3401 14.2403 20.978 13.6991 21.1414C13.349 21.2472 12.9141 21.3252 12.3937 21.3252C11.8732 21.3252 11.4382 21.2472 11.0881 21.1414C10.5469 20.978 10.1774 20.3401 10.1177 19.4948C10.0072 17.928 9.91797 15.1277 9.91797 11.9178Z" fill="#D7E0FF" stroke="#4147D5" stroke-width="1.73116"/>
</svg>
