<svg width="40" height="40" viewBox="0 0 40 40" fill="none" xmlns="http://www.w3.org/2000/svg">
<path d="M20 2.5C10.335 2.5 2.5 10.335 2.5 20C2.5 29.665 10.335 37.5 20 37.5C29.665 37.5 37.5 29.665 37.5 20C37.5 10.335 29.665 2.5 20 2.5Z" fill="#93C5FD"/>
<path d="M19.4749 20.2994C19.3061 20.1353 19.3061 19.8648 19.4749 19.7006C20.3232 18.8753 22.7941 16.4621 25.2707 13.9533C25.8305 13.3863 26.0471 12.5803 25.5731 11.9453C25.3791 11.6853 25.121 11.3908 24.7784 11.0748C24.3121 10.6445 23.8681 10.3568 23.4981 10.1654C22.8921 9.85217 22.1828 10.0119 21.6326 10.4091C17.326 13.5174 14.389 16.8733 12.9686 18.6753C12.3438 19.4678 12.3438 20.5322 12.9686 21.3248C14.389 23.1267 17.326 26.4826 21.6326 29.5909C22.1828 29.9881 22.8921 30.1478 23.4981 29.8346C23.8681 29.6433 24.3121 29.3555 24.7784 28.9253C25.121 28.6092 25.3791 28.3147 25.5731 28.0548C26.0471 27.4198 25.8305 26.6137 25.2707 26.0468C22.7941 23.5379 20.3232 21.1247 19.4749 20.2994Z" fill="white"/>
</svg>
