<svg viewBox="0 0 24 24" fill="none" xmlns="http://www.w3.org/2000/svg">
<path d="M11.0588 1.45662C9.89861 1.34437 8.70362 1.28577 7.4831 1.28577C6.26256 1.28577 5.06756 1.34437 3.90739 1.45662C2.63072 1.58014 1.65408 2.87412 1.59641 4.4497C1.50735 6.88313 1.46045 9.40924 1.46045 12.0001C1.46045 14.5909 1.50735 17.117 1.59641 19.5505C1.65408 21.1261 2.63072 22.42 3.90739 22.5434C5.06756 22.6557 6.26256 22.7143 7.4831 22.7143C8.70362 22.7143 9.89861 22.6557 11.0588 22.5434C12.3354 22.42 13.3121 21.1261 13.3697 19.5505C13.4015 18.6822 13.4279 17.8022 13.4488 16.9116V7.08856C13.4279 6.19798 13.4015 5.31794 13.3697 4.4497C13.3121 2.87412 12.3354 1.58014 11.0588 1.45662Z" fill="#D7E0FF"/>
<path d="M13.3697 4.4497C13.3121 2.87412 12.3354 1.58014 11.0588 1.45662C9.89861 1.34437 8.70361 1.28577 7.48309 1.28577C6.26256 1.28577 5.06756 1.34437 3.90739 1.45662C2.63072 1.58014 1.65408 2.87412 1.59641 4.4497C1.50735 6.88313 1.46045 9.40924 1.46045 12.0001C1.46045 14.5909 1.50735 17.117 1.59641 19.5505C1.65408 21.1261 2.63072 22.42 3.90739 22.5434C5.06756 22.6557 6.26256 22.7143 7.48309 22.7143C8.70361 22.7143 9.89861 22.6557 11.0588 22.5434C12.3354 22.42 13.3121 21.1261 13.3697 19.5505" stroke="#4147D5" stroke-width="1.73116" stroke-linecap="round"/>
<path d="M17.1895 17.0771C19.3489 15.3078 20.4281 14.2289 22.1115 12.155C20.4281 10.081 19.3489 9.00217 17.1895 7.23279" stroke="#4147D5" stroke-width="1.73116" stroke-linecap="round" stroke-linejoin="round"/>
<path d="M6.86377 12.1553H22.0569" stroke="#4147D5" stroke-width="1.73116" stroke-linecap="round" stroke-linejoin="round"/>
</svg>
