<svg viewBox="0 0 70 70" fill="none" xmlns="http://www.w3.org/2000/svg">
<path d="M70 35C70 54.33 54.33 70 35 70C15.67 70 0 54.33 0 35C0 15.67 15.67 0 35 0C54.33 0 70 15.67 70 35Z" fill="currentColor"/>
<path d="M35 47.5579C28.9722 47.5579 24.0625 42.6482 24.0625 36.6204V28.5186C24.0625 22.4908 28.9722 17.5811 35 17.5811C41.0278 17.5811 45.9375 22.4908 45.9375 28.5186V36.6204C45.9375 42.6482 41.0278 47.5579 35 47.5579ZM35 20.0116C30.3171 20.0116 26.4931 23.8195 26.4931 28.5186V36.6204C26.4931 41.3195 30.3171 45.1274 35 45.1274C39.6829 45.1274 43.5069 41.3195 43.5069 36.6204V28.5186C43.5069 23.8195 39.6829 20.0116 35 20.0116Z" fill="white"/>
<path d="M35.0003 52.4192C26.2827 52.4192 19.2017 45.3382 19.2017 36.6206V33.3798C19.2017 32.7155 19.7526 32.1646 20.4169 32.1646C21.0813 32.1646 21.6322 32.7155 21.6322 33.3798V36.6206C21.6322 43.9933 27.6276 49.9886 35.0003 49.9886C42.373 49.9886 48.3683 43.9933 48.3683 36.6206V33.3798C48.3683 32.7155 48.9193 32.1646 49.5836 32.1646C50.248 32.1646 50.7989 32.7155 50.7989 33.3798V36.6206C50.7989 45.3382 43.7179 52.4192 35.0003 52.4192Z" fill="white"/>
<path d="M39.2295 28.8911C39.0998 28.8911 38.954 28.8749 38.8082 28.8263C36.1994 27.8865 33.3313 27.8865 30.7225 28.8263C30.1068 29.0532 29.41 28.7291 29.1832 28.0972C28.9563 27.4652 29.2804 26.7685 29.9123 26.5416C33.0559 25.4074 36.5073 25.4074 39.6508 26.5416C40.2827 26.7685 40.6068 27.4652 40.3799 28.0972C40.2017 28.5995 39.7318 28.8911 39.2295 28.8911Z" fill="white"/>
<path d="M37.7549 33.7526C37.6576 33.7526 37.5442 33.7364 37.4308 33.704C35.697 33.2341 33.866 33.2341 32.1322 33.704C31.4678 33.8823 30.8197 33.4934 30.6414 32.8452C30.4632 32.1971 30.8521 31.5327 31.5002 31.3545C33.6553 30.7712 35.9238 30.7712 38.0789 31.3545C38.7271 31.5327 39.116 32.1971 38.9377 32.8452C38.7757 33.4124 38.2896 33.7526 37.7549 33.7526Z" fill="white"/>
</svg>
