<svg viewBox="0 0 40 40" fill="currentColor" xmlns="http://www.w3.org/2000/svg">
<path d="M20 40C31.0457 40 40 31.0457 40 20C40 8.9543 31.0457 0 20 0C8.9543 0 0 8.9543 0 20C0 31.0457 8.9543 40 20 40Z" fill="#EAF5FF"/>
<path d="M23.9011 10.5345C22.3807 9.39071 20.5374 10.175 20.4175 12.0093C20.3476 13.0789 20.2854 14.4454 20.2474 16.1782C15.6518 16.239 11.3071 16.41 9.1163 16.5369C7.7082 16.6184 7.173 17.4444 7.049 18.774C7.0186 19.0989 7 19.4633 7 19.8681C7 20.317 7.0229 20.7162 7.0593 21.0671C7.191 22.3384 7.6556 23.1457 9 23.2638C11.1762 23.4549 15.5694 23.719 20.2472 23.8119C20.2851 25.5492 20.3474 26.9187 20.4175 27.9904C20.5374 29.825 22.3812 30.6094 23.9019 29.4654C24.9275 28.6939 26.2264 27.6605 27.8228 26.2925C30.2716 24.1941 31.6704 22.6205 32.4568 21.5718C33.1811 20.6059 33.181 19.395 32.4567 18.4291C31.6702 17.3805 30.2715 15.8069 27.8228 13.7083C26.226 12.3397 24.9269 11.3061 23.9011 10.5345Z" fill="currentColor"/>
</svg>
