<svg viewBox="0 0 24 24" fill="none" xmlns="http://www.w3.org/2000/svg">
<g clip-path="url(#clip0_2018_1604)">
<path d="M16.6147 22.3024C17.4348 22.2202 18.0711 21.5536 18.1219 20.7309C18.2966 17.9025 18.3895 15.1456 18.3895 11.9999C18.3895 8.85423 18.2966 6.09744 18.1219 3.26904C18.0711 2.44637 17.4348 1.77953 16.6147 1.69743C11.9022 1.22569 7.77294 1.22569 3.06044 1.69743C2.24029 1.77953 1.60398 2.44637 1.55319 3.26904C1.37856 6.09744 1.28571 8.85423 1.28571 11.9999C1.28571 15.1456 1.37856 17.9025 1.55319 20.7309C1.60398 21.5536 2.24029 22.2202 3.06044 22.3024C7.77292 22.7741 11.9022 22.7741 16.6147 22.3024Z" fill="#D7E0FF" stroke="#4147D5" stroke-width="1.73288"/>
<path d="M18.3894 3.44507H20.9036C21.4887 3.44507 22.0528 3.73509 22.2942 4.26799C22.9095 5.62703 22.8183 6.92296 22.2196 8.9213C22.0091 9.62409 21.3493 10.0896 20.6157 10.0896H18.3894V3.44507Z" fill="white" stroke="#4147D5" stroke-width="1.73288"/>
<path d="M18.3894 10.0896H20.9036C21.4887 10.0896 22.0528 10.3796 22.2942 10.9125C22.9095 12.2715 22.8183 13.5675 22.2196 15.5658C22.0091 16.2686 21.3495 16.7341 20.6157 16.7341H18.3894V10.0896Z" fill="white" stroke="#4147D5" stroke-width="1.73288"/>
<path d="M12.3 5.89709H7.37318C6.6631 5.89709 6.08746 6.47273 6.08746 7.18281V8.91424C6.08746 9.62432 6.6631 10.2 7.37318 10.2H12.3C13.0101 10.2 13.5857 9.62432 13.5857 8.91424V7.18281C13.5857 6.47273 13.0101 5.89709 12.3 5.89709Z" fill="white" stroke="#4147D5" stroke-width="1.73288"/>
</g>
<defs>
<clipPath id="clip0_2018_1604">
<rect width="24" height="24" fill="white"/>
</clipPath>
</defs>
</svg>
