<svg viewBox="0 0 60 60" fill="none" xmlns="http://www.w3.org/2000/svg">
<path d="M53.6839 35.2623C54.0665 35.0929 54.3877 34.8154 54.5156 34.4171C54.7286 33.7531 55 32.4302 55 30.0001C55 27.5699 54.7286 26.2471 54.5156 25.5831C54.3877 25.1847 54.0665 24.9072 53.6839 24.7378C52.0768 24.0269 47.4137 22.0618 43.2352 21.2501C43.2352 21.2501 42.5 22.0001 42.5 30.0001C42.5 38.0001 43.2352 38.7501 43.2352 38.7501C47.4137 37.9383 52.0768 35.9732 53.6839 35.2623Z" fill="#4F46F2"/>
<path d="M26.0808 52.2182C25.5983 54.2149 23.6238 55.4112 21.7046 54.8697L16.3666 53.3634C14.2063 52.7539 13.125 50.2519 14.1265 48.1797L19.2876 37.5001L28.75 41.1713L26.0808 52.2182Z" fill="#4F46F2"/>
<path d="M9.01474 40.6004C7.33795 40.3682 5.89613 39.3103 5.57893 37.6029C5.27784 35.9822 5 33.5303 5 30.0001C5 26.4698 5.27784 24.0179 5.57893 22.3972C5.89613 20.6898 7.33795 19.6319 9.01474 19.3997C15.251 18.5357 31.0084 15.7358 42.1553 8.42906C44.9409 6.603 48.4061 7.49843 48.8993 10.8553C49.479 14.8017 50 20.8843 50 30.0001C50 39.1158 49.479 45.1984 48.8993 49.1448C48.4061 52.5017 44.9409 53.3971 42.1551 51.5711C31.0084 44.2643 15.251 41.4644 9.01474 40.6004Z" fill="#EEEDFF"/>
<path d="M5.57893 37.6034C5.89613 39.3107 7.33795 40.3686 9.01474 40.6009C9.97001 40.7332 11.1487 40.911 12.5 41.1435V18.8575C11.1487 19.09 9.97001 19.2677 9.01474 19.4001C7.33795 19.6324 5.89613 20.6902 5.57893 22.3976C5.27784 24.0184 5 26.4702 5 30.0005C5 33.5307 5.27784 35.9827 5.57893 37.6034Z" fill="#4F46F2"/>
</svg>
