<svg viewBox="0 0 36 36" fill="none" xmlns="http://www.w3.org/2000/svg">
<path fill-rule="evenodd" clip-rule="evenodd" d="M17.9996 32.4001C21.8187 32.4001 25.4814 30.883 28.1819 28.1824C30.8825 25.4819 32.3996 21.8192 32.3996 18.0001C32.3996 14.181 30.8825 10.5183 28.1819 7.81776C25.4814 5.11724 21.8187 3.6001 17.9996 3.6001C14.1805 3.6001 10.5178 5.11724 7.81727 7.81776C5.11675 10.5183 3.59961 14.181 3.59961 18.0001C3.59961 21.8192 5.11675 25.4819 7.81727 28.1824C10.5178 30.883 14.1805 32.4001 17.9996 32.4001V32.4001ZM19.7996 12.6001C19.7996 12.1227 19.61 11.6649 19.2724 11.3273C18.9348 10.9897 18.477 10.8001 17.9996 10.8001C17.5222 10.8001 17.0644 10.9897 16.7268 11.3273C16.3893 11.6649 16.1996 12.1227 16.1996 12.6001V16.2001H12.5996C12.1222 16.2001 11.6644 16.3897 11.3268 16.7273C10.9893 17.0649 10.7996 17.5227 10.7996 18.0001C10.7996 18.4775 10.9893 18.9353 11.3268 19.2729C11.6644 19.6105 12.1222 19.8001 12.5996 19.8001H16.1996V23.4001C16.1996 23.8775 16.3893 24.3353 16.7268 24.6729C17.0644 25.0105 17.5222 25.2001 17.9996 25.2001C18.477 25.2001 18.9348 25.0105 19.2724 24.6729C19.61 24.3353 19.7996 23.8775 19.7996 23.4001V19.8001H23.3996C23.877 19.8001 24.3348 19.6105 24.6724 19.2729C25.01 18.9353 25.1996 18.4775 25.1996 18.0001C25.1996 17.5227 25.01 17.0649 24.6724 16.7273C24.3348 16.3897 23.877 16.2001 23.3996 16.2001H19.7996V12.6001Z" fill="currentColor"/>
</svg>
