<svg viewBox="0 0 32 32" fill="none" xmlns="http://www.w3.org/2000/svg">
<path d="M15.9999 30.3333C9.06661 30.3333 3.43994 24.6933 3.43994 17.7733C3.43994 10.8533 9.06661 5.19995 15.9999 5.19995C17.4266 5.19995 18.8133 5.39995 20.1466 5.81328C20.6799 5.97328 20.9733 6.53328 20.8133 7.06662C20.6533 7.59995 20.0933 7.89328 19.5599 7.73328C18.4266 7.38662 17.2266 7.19995 15.9999 7.19995C10.1733 7.19995 5.43994 11.9333 5.43994 17.76C5.43994 23.5866 10.1733 28.32 15.9999 28.32C21.8266 28.32 26.5599 23.5866 26.5599 17.76C26.5599 15.6533 25.9466 13.6266 24.7866 11.8933C24.4799 11.44 24.5999 10.8133 25.0666 10.5066C25.5199 10.2 26.1466 10.32 26.4533 10.7866C27.8399 12.8533 28.5733 15.2666 28.5733 17.7733C28.5599 24.6933 22.9333 30.3333 15.9999 30.3333Z" fill="#FAFAFA"/>
<path d="M21.5068 8.09329C21.2268 8.09329 20.9468 7.97329 20.7468 7.74662L16.8934 3.31995C16.5334 2.90662 16.5734 2.26662 16.9868 1.90662C17.4001 1.54662 18.0401 1.58662 18.4001 1.99995L22.2534 6.42662C22.6134 6.83995 22.5734 7.47995 22.1601 7.83995C21.9868 8.01329 21.7468 8.09329 21.5068 8.09329Z" fill="#FAFAFA"/>
<path d="M17.0135 11.3734C16.7068 11.3734 16.4001 11.2268 16.2001 10.9601C15.8801 10.5201 15.9735 9.89344 16.4135 9.5601L20.9068 6.2801C21.3468 5.94677 21.9735 6.05344 22.3068 6.49344C22.6401 6.93344 22.5335 7.5601 22.0935 7.89344L17.6001 11.1868C17.4268 11.3201 17.2268 11.3734 17.0135 11.3734Z" fill="#FAFAFA"/>
</svg>
