<svg width="40" height="40" viewBox="0 0 40 40" fill="none" xmlns="http://www.w3.org/2000/svg">
<path d="M4.12676 34.0337C7.60352 32.8543 14.1407 31.3227 19.6081 33.9687C19.8552 34.0883 20.1449 34.0883 20.3921 33.9687C25.8594 31.3227 32.3967 32.8543 35.8734 34.0337C37.0356 34.4279 38.3334 33.5784 38.3334 32.3512V14.1328C38.3334 13.1407 37.7507 12.2283 36.806 11.9252C31.8575 10.3372 24.9244 10.4813 20.3362 12.3575C20.1203 12.4458 19.8798 12.4458 19.664 12.3575C15.0757 10.4813 8.14268 10.3372 3.1942 11.9252C2.24951 12.2283 1.66675 13.1407 1.66675 14.1328V32.3512C1.66675 33.5784 2.96456 34.4279 4.12676 34.0337Z" fill="#1575E5"/>
<path d="M4.5556 31.1517C8.91384 29.5555 15.0467 29.6184 19.2651 31.3402C19.7358 31.5323 20.264 31.5323 20.7348 31.3402C24.9532 29.6184 31.086 29.5555 35.4443 31.1517C36.0213 31.3629 36.6666 30.9533 36.6666 30.3388V11.0459C36.6666 10.4063 36.3037 9.81575 35.7075 9.58425C31.3358 7.88699 25.0388 7.91677 20.7347 9.67358C20.2639 9.86567 19.7359 9.86567 19.2652 9.67358C14.9611 7.91677 8.664 7.88699 4.29236 9.58425C3.69613 9.81575 3.33325 10.4063 3.33325 11.0459V30.3388C3.33325 30.9533 3.97861 31.3629 4.5556 31.1517Z" fill="#A6CFFF"/>
<path d="M19.1667 9.63367C19.1997 9.64683 19.2326 9.66017 19.2653 9.6735C19.7361 9.86567 20.2641 9.86567 20.7348 9.6735C20.7676 9.66017 20.8004 9.64683 20.8334 9.63367V31.3003C20.8005 31.3135 20.7677 31.3267 20.7349 31.3402C20.2642 31.5322 19.736 31.5322 19.2652 31.3402C19.2325 31.3267 19.1997 31.3135 19.1667 31.3003V9.63367Z" fill="#1575E5"/>
<path d="M7.76087 18.3323C7.21322 18.4608 6.66675 18.0592 6.66675 17.4966V16.6609C6.66675 16.1145 7.02044 15.6267 7.55056 15.4947C10.2002 14.8349 13.1332 14.8349 15.7829 15.4947C16.3131 15.6267 16.6667 16.1145 16.6667 16.6609V17.4966C16.6667 18.0592 16.1202 18.4608 15.5727 18.3323C13.049 17.7404 10.2845 17.7404 7.76087 18.3323Z" fill="#1575E5"/>
<path d="M7.76087 24.999C7.21322 25.1275 6.66675 24.7259 6.66675 24.1634V23.3276C6.66675 22.7813 7.02044 22.2934 7.55056 22.1614C10.2002 21.5017 13.1332 21.5017 15.7829 22.1614C16.3131 22.2934 16.6667 22.7813 16.6667 23.3276V24.1634C16.6667 24.7259 16.1202 25.1275 15.5727 24.999C13.049 24.4071 10.2845 24.4071 7.76087 24.999Z" fill="#1575E5"/>
<path d="M32.2392 18.3323C32.7868 18.4608 33.3333 18.0592 33.3333 17.4966V16.6609C33.3333 16.1145 32.9796 15.6267 32.4494 15.4947C29.7998 14.8349 26.8668 14.8349 24.2171 15.4947C23.6869 15.6267 23.3333 16.1145 23.3333 16.6609V17.4966C23.3333 18.0592 23.8798 18.4608 24.4273 18.3323C26.951 17.7404 29.7155 17.7404 32.2392 18.3323Z" fill="#1575E5"/>
<path d="M32.2392 24.9989C32.7868 25.1274 33.3333 24.7258 33.3333 24.1632V23.3275C33.3333 22.7812 32.9796 22.2933 32.4494 22.1613C29.7998 21.5016 26.8668 21.5016 24.2171 22.1613C23.6869 22.2933 23.3333 22.7812 23.3333 23.3275V24.1632C23.3333 24.7258 23.8798 25.1274 24.4273 24.9989C26.951 24.407 29.7155 24.407 32.2392 24.9989Z" fill="#1575E5"/>
</svg>
