<svg width="40" height="40" viewBox="0 0 40 40" fill="none" xmlns="http://www.w3.org/2000/svg">
<path d="M35.8926 17.2325C38.3332 14.7919 39.2627 11.2236 37.187 8.46596C36.4961 7.54795 35.6305 6.53303 34.5487 5.45131C33.467 4.36957 32.4521 3.50397 31.5341 2.81304C28.7763 0.737407 25.2081 1.66684 22.7675 4.10748L2.7392 24.1358C2.28265 24.5924 1.96949 25.1709 1.89415 25.8121C1.71246 27.3585 1.47639 30.8008 1.92211 36.5627C1.98461 37.3707 2.62936 38.0155 3.43735 38.078C9.19925 38.5236 12.6415 38.2875 14.1878 38.1059C14.8291 38.0305 15.4076 37.7174 15.8642 37.2609L35.8926 17.2325Z" fill="#1575E5"/>
<path d="M15.9297 37.1956C14.901 35.6736 12.8368 32.8369 10.0001 30.0002C7.16335 27.1635 4.32661 25.0992 2.80473 24.0706L2.73921 24.1361C2.28265 24.5926 1.96949 25.1711 1.89415 25.8124C1.78948 26.7032 1.66676 28.2233 1.66675 30.4536C1.66675 30.4535 1.66675 30.4539 1.66675 30.4536C1.66676 32.0946 1.73319 34.1208 1.92211 36.5629C1.98461 37.3709 2.62936 38.0156 3.43736 38.0781C9.19925 38.5239 12.6415 38.2878 14.1878 38.1061C14.8291 38.0308 15.4076 37.7176 15.8642 37.2611L15.9297 37.1956Z" fill="#A6CFFF"/>
<path d="M7.47989 38.3008C7.3337 38.0641 6.39291 36.5784 4.90729 35.0928C3.42164 33.6071 1.93601 32.6663 1.69922 32.5201C1.73578 33.715 1.80564 35.06 1.9219 36.5629C1.98441 37.3709 2.62916 38.0156 3.43715 38.0781C4.94004 38.1944 6.28512 38.2643 7.47989 38.3008Z" fill="#1575E5"/>
</svg>
