<svg width="40" height="40" viewBox="0 0 40 40" fill="none" xmlns="http://www.w3.org/2000/svg">
<path d="M20 2.5C29.665 2.5 37.5 10.335 37.5 20C37.5 29.665 29.665 37.5 20 37.5C10.335 37.5 2.5 29.665 2.5 20C2.5 10.335 10.335 2.5 20 2.5Z" fill="#93C5FD"/>
<path d="M20.5251 20.2994C20.6938 20.1353 20.6938 19.8648 20.5251 19.7006C19.6767 18.8753 17.2059 16.4621 14.7292 13.9533C14.1695 13.3863 13.9529 12.5803 14.4269 11.9453C14.6209 11.6853 14.879 11.3908 15.2216 11.0748C15.6879 10.6445 16.1318 10.3568 16.5018 10.1654C17.1078 9.85217 17.8171 10.0119 18.3673 10.4091C22.674 13.5174 25.611 16.8733 27.0314 18.6753C27.6561 19.4678 27.6561 20.5322 27.0314 21.3248C25.611 23.1267 22.674 26.4826 18.3673 29.5909C17.8171 29.9881 17.1078 30.1478 16.5018 29.8346C16.1318 29.6433 15.6879 29.3555 15.2216 28.9253C14.879 28.6092 14.6209 28.3147 14.4269 28.0548C13.9529 27.4198 14.1695 26.6137 14.7292 26.0468C17.2059 23.5379 19.6767 21.1247 20.5251 20.2994Z" fill="white"/>
</svg>
