<svg xmlns="http://www.w3.org/2000/svg" width="36" height="36" viewBox="0 0 36 36" fill="none">
  <path d="M18 36C27.9411 36 36 27.9411 36 18C36 8.05887 27.9411 0 18 0C8.05887 0 0 8.05887 0 18C0 27.9411 8.05887 36 18 36Z" fill="#EEEDFF"/>
  <path d="M28.2447 25.5862C25.7326 29.0515 21.7349 30.9344 17.6635 30.8544C11.1112 30.7257 5.55476 25.3643 5.1631 18.7523C4.7397 11.6053 10.5062 5.29947 17.6635 5.14553C21.2527 5.06833 24.9772 6.5099 27.4804 9.09309C27.4927 9.10579 27.5047 9.11856 27.5166 9.13142C28.1036 8.76748 28.606 8.48913 29.0271 8.27666C29.9285 7.82184 30.8256 8.42348 30.8486 9.43742C30.8767 10.682 30.8286 12.5513 30.5178 15.0147C30.3908 16.0208 29.4453 16.7054 28.4562 16.5072C26.0347 16.022 24.2569 15.4746 23.0923 15.0528C22.1435 14.7092 21.8608 13.6627 22.5757 12.9473C22.9173 12.6056 23.3508 12.2045 23.8974 11.7475C23.8804 11.7282 23.8636 11.7087 23.847 11.6889C22.3001 9.84194 20.4605 8.73687 17.6635 8.82004C12.498 8.97368 8.39868 13.6006 8.82449 18.7523C9.20514 23.3583 13.0906 27.0523 17.6635 27.1798C20.4717 27.2582 23.239 26.0277 25.0579 23.7329C25.6067 23.0405 26.3575 22.4997 27.1606 22.8627C27.3088 22.9296 27.4691 23.0115 27.6411 23.1114C27.8131 23.2113 27.9638 23.3099 28.0955 23.4055C28.8097 23.9235 28.7634 24.8706 28.2447 25.5862Z" fill="#4F46F2"/>
</svg>