<svg viewBox="0 0 32 32" fill="none" xmlns="http://www.w3.org/2000/svg">
<path d="M18.9595 28.8401C17.3862 28.8401 15.1595 27.7334 13.3995 22.4401L12.4395 19.5601L9.55952 18.6001C4.27952 16.8401 3.17285 14.6134 3.17285 13.0401C3.17285 11.4801 4.27952 9.2401 9.55952 7.46676L20.8795 3.69343C23.7062 2.74676 26.0662 3.02676 27.5195 4.46676C28.9729 5.90676 29.2529 8.28009 28.3062 11.1068L24.5329 22.4268C22.7595 27.7334 20.5329 28.8401 18.9595 28.8401ZM10.1862 9.37343C6.47952 10.6134 5.15952 12.0801 5.15952 13.0401C5.15952 14.0001 6.47952 15.4668 10.1862 16.6934L13.5462 17.8134C13.8395 17.9068 14.0795 18.1468 14.1729 18.4401L15.2929 21.8001C16.5195 25.5068 17.9995 26.8268 18.9595 26.8268C19.9195 26.8268 21.3862 25.5068 22.6262 21.8001L26.3995 10.4801C27.0795 8.42676 26.9595 6.74676 26.0929 5.88009C25.2262 5.01343 23.5462 4.90676 21.5062 5.58676L10.1862 9.37343Z" fill="currentColor"/>
<path d="M13.4801 19.1998C13.2267 19.1998 12.9734 19.1065 12.7734 18.9065C12.3867 18.5198 12.3867 17.8798 12.7734 17.4932L17.5467 12.7065C17.9334 12.3198 18.5734 12.3198 18.9601 12.7065C19.3467 13.0932 19.3467 13.7332 18.9601 14.1198L14.1867 18.9065C14.0001 19.1065 13.7334 19.1998 13.4801 19.1998Z" fill="currentColor"/>
</svg>
