<svg viewBox="0 0 36 36" fill="none" xmlns="http://www.w3.org/2000/svg">
<path d="M16.5 7.5H9C8.20435 7.5 7.44129 7.81607 6.87868 8.37868C6.31607 8.94129 6 9.70435 6 10.5V27C6 27.7956 6.31607 28.5587 6.87868 29.1213C7.44129 29.6839 8.20435 30 9 30H25.5C26.2956 30 27.0587 29.6839 27.6213 29.1213C28.1839 28.5587 28.5 27.7956 28.5 27V19.5M26.379 5.379C26.6557 5.09247 26.9868 4.86392 27.3528 4.70669C27.7188 4.54947 28.1125 4.46671 28.5108 4.46325C28.9091 4.45979 29.3042 4.53569 29.6729 4.68653C30.0416 4.83738 30.3765 5.06014 30.6582 5.34181C30.9399 5.62349 31.1626 5.95845 31.3135 6.32714C31.4643 6.69583 31.5402 7.09087 31.5368 7.4892C31.5333 7.88754 31.4505 8.2812 31.2933 8.64721C31.1361 9.01323 30.9075 9.34426 30.621 9.621L17.742 22.5H13.5V18.258L26.379 5.379Z" stroke="currentColor" stroke-width="2" stroke-linecap="round" stroke-linejoin="round"/>
</svg>
